<svg version="1.0" xmlns="http://www.w3.org/2000/svg" width="4069.333" height="3493.333" viewBox="0 0 3052 2620"><path d="M1450 278.6c0 .8.5 1.2 1 .9.6-.3 1-1 1-1.6 0-.5-.4-.9-1-.9-.5 0-1 .7-1 1.6zM1167 1309.4c0 .2.8 1 1.8 1.7 1.5 1.3 1.6 1.2.3-.4s-2.1-2.1-2.1-1.3zM1137.7 1424.1c.7.7 1.5 1 1.8.7.3-.3-.2-.9-1.2-1.2-1.4-.6-1.5-.5-.6.5zM1155 1430.5c0 .8.2 1.5.4 1.5s.6-.7 1-1.5c.3-.8.1-1.5-.4-1.5-.6 0-1 .7-1 1.5zM1133.5 1434c.3.5.8 1 1.1 1 .2 0 .4-.5.4-1 0-.6-.5-1-1.1-1-.5 0-.7.4-.4 1zM1156 1433.8c0 .2.9 1.5 1.9 2.8 1.5 1.9 2 2.1 2.5.9.3-.8 1.2-1.2 2.1-.9.8.3 1.5.1 1.5-.5s-.5-1.1-1.1-1.1c-.5 0-.8-.3-.5-.8.2-.4-1.1-.8-3-.8s-3.4.1-3.4.4zM1141 1434.9c0 .5.9 1.1 2 1.4 1.2.3 2 1.4 2 2.5 0 1.2.5 2.4 1 2.7.6.4.8 1.1.5 1.6-.3.5 0 .6.7.4 1.6-.6 4.1 5.5 3.2 7.8-.8 2.2.8 2.7 3.6 1.1 2.3-1.4 2.3-1.4.3-.9-1.9.5-2.3.2-2.3-1.9 0-1.4-.5-2.8-1-3.1-.8-.5-.7-1.1.1-2.1 1.5-1.9.3-5-1.4-3.6-.8.7-1.8.7-2.7.2-.8-.6-1.1-1-.7-1 1.4 0-2.6-6-4-6-.7 0-1.3.4-1.3.9zm10 7.1c0 .5-.5 1-1.1 1-.5 0-.7-.5-.4-1 .3-.6.8-1 1.1-1 .2 0 .4.4.4 1zM1135.8 1437.4c-2.2 1.6-2.3 2.6-.4 2.6.7 0 1.6 1.1 1.9 2.5.4 2.4.3 2.5-1.4.9-1.5-1.4-2.1-1.4-3.4-.4-.8.7-1.2 1.6-.9 2.2.3.5 1.1.5 1.9-.2.9-.8 1.4-.6 1.9.5.4 1.1.2 1.4-.7 1-.6-.4-.3.1.7.9 2 1.6 1.9 1.6-.1 1.6-1.2 0-2.4-.6-2.6-1.3-.4-.9-.6-.9-.6.1-.1 1.4 3.9 3.3 5.2 2.5.5-.3.7-1.4.4-2.4-.3-1.1-.1-1.9.4-1.9s.9-.7.9-1.5.4-1.5.9-1.5 1.1-1.1 1.3-2.5c.4-1.7.1-2.5-.9-2.5-.9 0-1.3.6-1 1.5.4.8.1 1.7-.5 2.1-.7.4-.8.3-.4-.4s.2-1.2-.4-1.2c-.7 0-.9-.8-.5-2 .7-2.3.6-2.4-1.7-.6z"/><path d="M1147.7 1438c.3 1.1.7 2 .9 2 .2 0 .4-.9.4-2s-.4-2-.9-2-.7.9-.4 2zM1129.2 1442c-.9 1.5-.9 2.1.1 2.6.6.4.9.4.5-.1-.4-.4-.3-1.4.4-2.2.6-.7.9-1.5.7-1.8-.3-.2-1 .4-1.7 1.5zM1153.8 1441.7c.7.3 1.6.2 1.9-.1.4-.3-.2-.6-1.3-.5-1.1 0-1.4.3-.6.6zM1139.6 1445.6c-.3.9-.4 1.9-.1 2.4.8 1.3-2.6 3.5-5.4 3.5-1.4 0-2.5.5-2.4 1.1.1.6-.4 1.1-1.2 1.1-1.1 0-1.1-.5-.4-1.9.9-1.7.8-1.8-1-.9-2.5 1.4-3.2 2.4-2.3 3.7 1 1.5 4.2 2.5 4.2 1.3 0-.6.4-.8.9-.5.5.4 1.1.2 1.3-.4.4-1.2 6.8-2.1 6.8-.9 0 .9-1.5 1.3-3.3 1-.5-.1-.6.3-.3.8.7 1.1-2.9 2.5-4.3 1.7-.5-.3-1.1.1-1.5.9-.3.8-.1 1.5.3 1.5.5 0 1.7.3 2.6.6.9.4 1.5.3 1.3-.2-.2-.5.2-1 .7-1.1.6 0 .9.2.8.5-.1.4 1.3.8 3 .9 2.4.1 2.7 0 1.2-.6-1.9-.8-1.9-.8.3-2 1.9-1 2.2-.9 2.2.6.1 1.7.1 1.7 1.1 0 1.2-2.1.4-3.8-1.5-3.1-.8.3-1.6-.4-1.9-1.5-.4-1.5-1-1.9-2.3-1.4-1.2.4-1.5.3-1-.5 1.1-1.8 4.4-1.4 4.8.5.3 1.5.5 1.4 1-.5.3-1.2.2-2-.3-1.6-.5.3-.9.1-.9-.5 0-.5.5-1.3 1-1.6.6-.3 1-.1 1 .6 0 .8.3.9 1.3 0 .8-.6 1.7-.8 2-.4.4.3.7-.4.7-1.6 0-1.9-.4-2.2-2.2-1.7-5.4 1.6-6 1.6-4.8.1.7-.9.8-1.5.2-1.5-.5 0-1.3.7-1.6 1.6zm.2 11.8c-.7.8-1.6 1.2-2.1.9-1.1-.7.2-2.3 1.9-2.3 1.2 0 1.2.2.2 1.4zM1155.8 1447.2c-1 1-1.6 1.9-1.3 1.9.3.1.8.2 1.3.3.4.1 1.3.5 2 .9.9.7 1.1.2.8-1.8-.6-3.5-.7-3.5-2.8-1.3zM1129 1447.5c0 .8.4 1.5.8 1.5.5 0 .9-.7.9-1.5s-.4-1.5-.9-1.5c-.4 0-.8.7-.8 1.5zM1124.3 1451.6c0 2.3.1 2.4.9 1 .7-1.2.7-2.1 0-2.8-.6-.6-.9 0-.9 1.8z"/><path d="M1145.2 1450.6c-.7 1.4-.6 2.2.3 3.1 1 .9 1.4.8 1.8-.6.7-2.9-.9-4.8-2.1-2.5zM1125 1456.6c0 1.2-.7 1.5-3 1.2-2.2-.3-2.7-.1-2 .7 1.2 1.4-3.5 3.9-5.3 2.9-.8-.5-.7-.2.1.7 1 1.1 1.6 1.1 3.2.1 1.8-1.1 2-1 2 1.3 0 1.4.5 2.5 1.2 2.5.9 0 .9.3 0 1.2-1 1-1.5 1-2.2-.2-.7-1.2-1.2-1.2-2.2-.2-.9.9-.9 1.5.1 2.4 1.2 1.1 1.3.9.7-.7-.6-1.7-.5-1.8.6-.7s1 1.6-.6 2.8c-1.7 1.2-1.8 1.6-.6 2.7 1 1 1.1.9.5-.3-.5-.8.4-.4 2 1l2.7 2.5-.7-2.5c-.7-2.1-.6-2.3.7-1.2 1.3 1 1.5.8 1-1.4-.3-1.8-.7-2.2-1.3-1.3-.4.8-1.2 1-1.6.5-.4-.4.2-1.6 1.4-2.6 1.2-.9 1.9-2.1 1.5-2.4-.3-.4.1-.4 1.1 0 .9.3 1.7.2 1.7-.4 0-1.6-3.3-2.4-4.2-1-.6 1-.8.8-.8-.5 0-.9.7-1.7 1.5-1.7.9 0 1.2-.6.9-1.8-.5-1.4-.4-1.4.4-.2.6.8.8 1.8.6 2.2-.3.4 0 .8.5.8.6 0 1.1-1.8 1.1-4s-.2-4-.5-4-.5.7-.5 1.6zM1127.5 1458c.3.5 1 1 1.6 1 .5 0 .9-.5.9-1 0-.6-.7-1-1.6-1-.8 0-1.2.4-.9 1zM1127.5 1462.3c0 2.5 2.9 3.5 4.1 1.5.5-.8.1-.9-1.1-.5-1.4.6-1.6.3-1.2-1.3.3-1.1 0-2-.6-2-.7 0-1.2 1-1.2 2.3z"/><path d="M1131.8 1462.3c.7.8.7 1.8.2 2.7-.6.8-1 1.9-1 2.5.1.5.5.2 1.1-.8 1-1.6 1.2-1.6 2.9.5s1.7 1.9-.1-2c-1.2-2.3-2.6-4.2-3.1-4.2-.7 0-.7.4 0 1.3zM1116.8 1464.7c.7.3 1.6.2 1.9-.1.4-.3-.2-.6-1.3-.5-1.1 0-1.4.3-.6.6zM1108.5 1467c-.3.6.1.7.9.4 1.8-.7 2.1-1.4.7-1.4-.6 0-1.3.4-1.6 1zM1124.4 1469.6c.3.9.6 2 .6 2.5 0 .6.4.8.9.4 1.5-.8.9-4.5-.7-4.5-.9 0-1.2.6-.8 1.6zM1110.8 1469.7c.7.3 1.6.2 1.9-.1.4-.3-.2-.6-1.3-.5-1.1 0-1.4.3-.6.6zM1127.6 1471.6c-.9 2.4-.2 2.6 1.2.4.7-1.1.8-2 .3-2s-1.2.7-1.5 1.6zM1134.5 1471c.3.5.8 1 1.1 1 .2 0 .4-.5.4-1 0-.6-.5-1-1.1-1-.5 0-.7.4-.4 1zM1108 1471.9c0 1.5 2.8 2 3.9.8.7-1 .4-1.3-1.5-1.5-1.3-.1-2.4.2-2.4.7zM1113.6 1472.8c-.2.4-.1 1.4.4 2.2.7 1.1.9.9.7-.8-.1-2.4-.3-2.6-1.1-1.4zM1106.4 1474.8c.3.5 0 1.3-.6 1.5-.8.3-.6.6.5.6 1.9.1 2.3-1.4.5-2.5-.6-.4-.8-.3-.4.4zM1126.8 1477.4c-1.7 1.3-1.4 2.6.5 2.6.6 0 .7-.3.4-.7-.4-.3-.2-1.2.4-2 1.4-1.6.9-1.6-1.3.1zM1108.4 1480.5c-.4.9-.1 2.2.5 2.8.9.9 1.1.8.5-.6-.5-1.5-.3-1.7 1.9-1.2 1.5.4 2.8.2 3.2-.6.5-.8.4-1-.3-.5-.6.4-2.1.2-3.2-.4-1.6-.9-2.2-.8-2.6.5zM1297 1483.6c0 .8.5 1.2 1 .9.6-.3 1-1 1-1.6 0-.5-.4-.9-1-.9-.5 0-1 .7-1 1.6zM1101 1484c0 .5.5 1 1.1 1 .5 0 .7-.5.4-1-.3-.6-.8-1-1.1-1-.2 0-.4.4-.4 1zM1395 1486.9c0 .9 3 2.4 3.6 1.8.2-.1-.6-.8-1.6-1.5-1.1-.7-2-.8-2-.3zM1080.9 1496.7c-1.3 1.6-1.2 1.7.4.4 1.6-1.3 2.1-2.1 1.3-2.1-.2 0-1 .8-1.7 1.7zM1083 1506.6c0 .2 1.3 1 3 1.9 2.4 1.3 2.9 1.3 2.4.1-.4-1.2-5.4-3-5.4-2zM1094.3 1507.7c.9.2 2.3.2 3 0 .6-.3-.1-.5-1.8-.5-1.6 0-2.2.2-1.2.5zM1079.4 1510c0 1.3.4 1.6 1 1 .7-.7.7-1.3 0-2-.6-.6-1-.3-1 1zM1082.7 1509.7c-.4.3-.7 1.1-.7 1.7 0 .6.5.5 1.2-.2.6-.6.9-1.4.7-1.7-.3-.3-.9-.2-1.2.2zM1580.4 1821.2c-1.2 1.8-1.2 4.8-.1 5.5.5.3.5.8-.2 1.2-.7.5-.5 1.9.9 4.6 1.1 2.2 1.6 4.1 1.1 4.3-.6.2.5 1.9 2.3 3.7 1.9 1.9 3.1 3.7 2.8 4-.4.4.4 1.5 1.8 2.5 2.1 1.6 2.3 2 1 3.7-1.3 1.5-1.1 1.5.9-.2 1.4-1.1 2.1-1.4 1.7-.8-.5.8-.1 1.3.9 1.3 1.2 0 1.5.5 1.1 1.7-.4 1-.4 1.4 0 1 .4-.4 1.3-.2 2.1.4.8.7 1.3.8 1.3.1 0-.5 1.1-1.3 2.5-1.6 1.4-.4 2.5-1.2 2.5-1.8 0-.9-.3-.9-1.2 0-1.7 1.7-4.3 1.5-5.9-.6-1.3-1.5-1.2-1.6.3-.3 1 .7 2.6 1 3.5.7 1.4-.6 1.5-.9.4-1.5-1-.7-1.1-1.3-.2-2.7.6-1.1 1.1-1.4 1.1-.9 0 .6.9 1.1 2 1.2 1.7.1 1.9-.3 1.5-2.5l-.5-2.7 1.2 2.7c1.1 2.6 5.1 3.7 4.1 1.1-.3-.7-.9-1-1.4-.7-.5.3-.9.1-.9-.5s-1-2-2.2-3.2c-1.3-1.2-1.8-1.9-1.1-1.5 1.7.9 2.2-1.7.6-3.2-1-1.1-2.1-1.1-4.6-.3-2.7.9-2.9.9-1.5-.2 1.8-1.5 3.8-7.4 2.1-6.4-.6.4-2.4-.3-3.9-1.5-2.8-2.1-2.8-2.1-1.1-.1 1.3 1.4 1.5 2.3.7 2.8s-.8 1.1.1 2.1c1 1.2.9 1.3-.5.8-.9-.3-1.6-1.4-1.6-2.4s-1-2.5-2.2-3.4c-1.8-1.3-1.9-1.6-.5-1.2 1.2.4 1.7.2 1.5-.6-.3-.7-1.5-1.5-2.7-1.6-1.6-.3-2.1 0-1.6.9.6.8.4 1-.4.5-.7-.5-1-1-.7-1.3.6-.6-1.9-3.3-2.9-3.3-.4 0-.5.6-.2 1.4.4 1 0 1.2-1.5.8-1.3-.3-1.6-.7-.8-1.2s.9-1 .2-1.4c-.6-.3-1.4-.1-1.8.6zm18.6 9.8c0 .5-.4 1-1 1-.5 0-1-.5-1-1 0-.6.5-1 1-1 .6 0 1 .4 1 1zm3.4 5.9c.3.5-.1 1.1-.9 1.5-.8.3-1.7 0-2.1-.6-.4-.7-.3-.8.4-.4s1.2.2 1.2-.3c0-1.3.7-1.4 1.4-.2zm1 7.4c.4 1.9.3 2-.7.6-.7-.9-1.6-1.6-2.2-1.7-.5 0-1.1-.5-1.3-1-.2-.6.6-.8 1.7-.5 1 .3 2.2 1.5 2.5 2.6zm-7.4 1.1c0 .2-.7.7-1.6 1-.8.3-1.2.2-.9-.4.6-1 2.5-1.4 2.5-.6zM1600.1 1826.6c0 1.1.3 1.4.6.6.3-.7.2-1.6-.1-1.9-.3-.4-.6.2-.5 1.3z"/><path d="M1580 1842.1c0 .5.5.9 1 .9.6 0 1 .7 1 1.5 0 1.9 1.4 1.9 2.9.1.9-1.1.6-1.6-1.9-2.4-1.8-.7-3-.7-3-.1zM1584.5 1847c-.4.6-.1 1 .5 1 .7 0 1 .7.6 1.5-.5 1.3-.2 1.4 1.7.4 1.2-.6 2.3-1.3 2.5-1.4.1-.1-.9-.7-2.3-1.3-1.5-.7-2.7-.8-3-.2zM1157.5 1897c-.3.5-.1 1 .4 1 .6 0 1.1-.5 1.1-1 0-.6-.2-1-.4-1-.3 0-.8.4-1.1 1zM1157.5 1899.4c-1.9.8-2.5 1.5-1.7 2 .7.4 1.2.2 1.2-.3 0-.6.6-1.1 1.4-1.1.8 0 1.8-.5 2.1-1 .8-1.2.7-1.2-3 .4zM1149.8 1901c-1 1-1.3 2.2-.9 2.5 1.4.8 1.9 5.3.8 6.4-1.3 1.3-3 1.4-2.2.2.3-.5.2-1.2-.3-1.5-.4-.2-.8.3-.9 1.3-.2 1.8 4 4.5 5.1 3.4 1.1-1.1.6-2.4-.5-1.7-.7.4-1 .1-.7-.6.7-2.3 2.8-2.3 2.8-.1 0 1.2.5 2.1 1.1 2.1.6 0 .8-.8.5-1.8-.5-1.4-.3-1.3 1 .3 1.6 1.9 1.6 1.9 1-.8-.4-1.8-.3-2.6.3-2.3.5.4 1.3.1 1.7-.5.4-.8.3-.9-.4-.5s-1.2.1-1.2-.6c-.1-.9-.5-.7-1.4.4-1.4 1.9-3.2 2.5-2.1.8.4-.6-.1-.7-1.1-.3-1.4.5-1.6.3-1-1.2.4-1 .2-2.1-.5-2.5-.8-.6-.8-1.3 0-2.9 1.5-2.6 1-2.7-1.1-.1zM1159.3 1902.9c0 1.1.5 1.8.9 1.5.4-.3.5-1.1.1-1.9-.7-2.1-1.2-1.9-1 .4z"/><path d="M1154 1903.9c0 1.4.6 1.9 2 1.8 1.1-.1 2-.4 2-.7 0-.3-.9-1.1-2-1.8-1.7-1.1-2-1-2 .7zM1143.3 1907.5c0 .8.4 1.2.9.9.5-.3.6-1 .3-1.5-.9-1.3-1.2-1.1-1.2.6zM1137 1909c0 .5.5 1 1.1 1 .5 0 .7-.5.4-1-.3-.6-.8-1-1.1-1-.2 0-.4.4-.4 1zM1139.6 1913.6c-.4.9-.4 1.9-.1 2.2.3.3.5 0 .5-.7s.4-.9 1-.6c.6.3.7-.1.4-.9-.8-2-1-2-1.8 0zM1143.5 1913c.3.5.8 1 1.1 1 .2 0 .4-.5.4-1 0-.6-.5-1-1.1-1-.5 0-.7.4-.4 1z"/><path d="M1146.9 1914.3c1.2 1.5 1.1 1.7-.5 1.7-1.4 0-1.5.3-.6 1.2.8.8 1.5.8 2.9-.3 1.6-1.2 1.6-1.1-.1.8-1.6 1.9-2 2-3.2.8-.8-.7-1.4-2-1.4-2.7 0-.8-.3-.9-.8-.3-1 1.4-5.2 1.1-6.2-.5-.5-.8-1-.9-1.4-.2-.3.6-.2 1.3.2 1.6 2.2 1.3-.2 7-3 7.2-1 .1-1.6-.2-1.3-.6.3-.5 0-1.2-.6-1.5-.5-.4-.8-1.2-.6-1.9.3-.6-.2-1.7-.9-2.4-1.1-1-1.3-.7-.7 2 .3 1.8.7 3.5.9 3.7.2.2-.6.9-1.9 1.6-1.2.6-2.1 1.9-1.9 2.8.4 2.1-2.9 3.9-4.9 2.6-1.2-.8-1.2-1 .1-.8 2.6.3 4-.1 4-.9 0-.5-1.4-.6-3.1-.4-2.8.4-3 .8-2.6 3.1.3 1.5.2 3.3-.4 4.1-.7 1.2-.9.9-1-1-.1-1.4-.1-3.4-.1-4.5.2-1.6 0-1.7-.7-.5-.6.8-1.3 1.1-1.7.7-.4-.4.1-1.6 1.1-2.7 2.6-2.8 1.1-2.5-2.1.5-2.5 2.4-5.2 2.6-3.8.3.4-.7.2-.8-.4-.4-.6.4-.9 1.2-.6 2 .3.7-.1 1.3-.8 1.3-.7 0-2.3.3-3.4.7-1.5.4-2.3.2-2.8-.9-.3-.8-.1-1.5.4-1.5.6 0 1 .4 1 1 0 .5.7.7 1.7.3 1.4-.5 1.3-.8-.6-1.5-2.9-1-4.3-.1-3.6 2.3.4 1.1.2 1.9-.4 1.9-.6 0-1.1-.5-1.1-1 0-.7-.7-.7-2 0-1.1.6-2.6.8-3.3.4-.9-.5-.9-.4.1.7.6.7 1.1 2.2 1.1 3.3-.1 1.8-.2 1.8-.6.3-.2-.9-.9-1.4-1.5-1.1-.6.4-.8.2-.5-.3.4-.6 0-1.4-.9-1.7-.8-.3-1.2-.2-.9.4.9 1.4-.9 1.2-2.3-.2-.9-.9-1.2-.8-1.2.5 0 .9-.3 1.7-.7 1.8-.5 0-1.9.2-3.2.5-1.8.3-2.2.1-1.7-1.1.3-.8.1-1.5-.4-1.5-.6 0-1 .9-1 2.1 0 1.4-.5 1.9-1.5 1.6-.8-.4-1.7-.2-2 .3-1 1.7-2.5 1.1-1.8-.7.5-1.1.3-1.4-.6-.8-.8.4-1.6.2-2.1-.5-.5-.8-.9-.7-1.3.5-.4.9-.3 1.3.3 1 1.1-.7 1.4.8.3 1.8-1.1 1.1-3.2-1.4-2.6-3.1.4-1.4.3-1.4-.5-.3-.7 1-.7 2.1-.1 3.3 1.3 2.4.4 2.3-2.2-.3l-2-2-1.9 2.1c-1.3 1.5-1.9 1.7-2.3.8-.4-1.1-.9-1-2.7 0-1.7 1.1-2.4 1.1-3 .2-.5-.8-1-.9-1.4-.2-.3.6-.2 1.3.4 1.7.5.3 1 1.1 1 1.7 0 .7-.7.5-1.7-.4-2-1.6-2.6-1.6-6.1-.4l-2.4.8 2.3 2.4c1.2 1.3 2.5 2.1 2.9 1.9.5-.3 1.1.2 1.4 1.1.4 1.1 1.4 1.5 3.1 1.2 1.3-.3 2.2-.2 2 .3-.3.4.3 1 1.2 1.3 1 .3 0 .3-2.1.1-3.1-.3-3.7-.2-2.7.8.7.7 3.2 1.2 5.6 1.2 2.3 0 4.1.3 3.8.7-.2.5.4.9 1.4.9 1 .1 2.9.3 4.3.5 7.9 1.3 22 1.8 22.9.9.2-.2 1.3 0 2.4.6 1.5.9 1.8.8 1.2-.2-.6-.9-.3-1.1.8-.6 1 .3 1.7.2 1.7-.3 0-1.2 2.2-.9 3.2.5.5.6.8.5.8-.2 0-1.2 7.1-3.7 10.3-3.6.9 0 1.7-.4 1.7-.8 0-.5.7-.9 1.5-.9s1.5-.5 1.5-1c0-.6.3-.9.8-.9 1.9.3 3.3-.2 2.7-1.1-.3-.6.1-.7 1-.4 1 .4 2.2-.1 3.2-1.5.9-1.3 2.1-2 3-1.7 1 .4 1.3.2 1-.6-.2-.7.2-1.9.9-2.6 1.2-1 1.4-1 1.4.2 0 .8.5 1.8 1.2 2.2.7.4.8.3.4-.5-.9-1.4.3-5.3 1.4-4.6.5.3 1.3-.3 1.9-1.2 1-1.7 1-1.7 1.1 0 0 1 .4 1.6.9 1.3 1-.7 1.2-5.6.2-5.6-.4 0-1.3.6-2.1 1.2-1.1 1-1.1.9 0-.6 1.4-1.8 1.3-1.9-.3-1.3-1.1.4-1.6.3-1.2-.3 1.2-2 4.5-1 5.6 1.6.5 1.5 1.2 2.4 1.6 2 .4-.3-.3-1.9-1.5-3.6l-2.2-2.9 2.1-1.5c1.2-.8 2.8-1.2 3.5-.9.8.3 1.4 0 1.4-.6s-.4-1.1-1-1.1c-.5 0-1-1.4-1-3 0-1.7-.5-3-1.2-3-.6 0-.9-.3-.5-.6.3-.3 1.5.1 2.7.9 1.6 1.1 1.8 1.6.8 2-.7.3.1.4 1.8.3 3.9-.4 5.6-1.4 4.8-2.9-.3-.7.2-.3 1.1.8 1.7 2 1.7 1.9 1.1-.8-.5-2-.3-2.7.9-2.7.8 0 1.5-.4 1.5-.9 0-1.4-2.6-2.1-3.8-.9-.7.7-1.7.6-3.3-.3-2.2-1.1-2.3-1.1-1 .4zm-7.5 5.4c.4.9.1 2.1-.5 2.7-.9.8-1 .8-.5-.2.4-.7.2-1.9-.4-2.7-.7-.9-.8-1.5-.2-1.5.5 0 1.3.8 1.6 1.7zm-1.4 4.7c0 .2-.7.7-1.6 1-.8.3-1.2.2-.9-.4.6-1 2.5-1.4 2.5-.6zm-5 1c0 .2-.9.6-2 .9-1.1.3-1.8.1-1.4-.4.5-.9 3.4-1.3 3.4-.5zm-5.9 6.3c-1.2 2-1.4 1.4-.5-1.2.4-.9.9-1.4 1.1-1.1.3.2 0 1.3-.6 2.3zm-19.8 1.8c-.3.9-.8 1.4-1 1.1-.3-.3-.2-.9.2-1.5.9-1.6 1.5-1.3.8.4zm-7.7 1c1.4 1.3 1.4 1.5 0 1.5-.8 0-1.7.8-1.9 1.7-.3 1-.5.3-.6-1.5-.1-3.6.3-3.9 2.5-1.7zm30.9 1.3c-.3.3-1.1 0-1.8-.7-.9-1-.8-1.1.6-.5 1 .3 1.5.9 1.2 1.2zm-79.6 9.3c-2.2 1.4-3.3 1-1.9-.6.7-.8 1.7-1.2 2.2-.9.6.4.5 1-.3 1.5z"/><path d="M1124 1920c-.9.6-1 1-.3 1 .6 0 1.5-.5 1.8-1 .8-1.2.4-1.2-1.5 0zM1132.7 1920.6c.6 1.6 1.9 1.8 2.7.5.3-.5-.3-1.1-1.3-1.4-1.4-.3-1.8-.1-1.4.9zM1123.7 1924.1c-.8 2.8-.3 3.4 1.1 1.6.6-.7.7-1.9.3-2.6-.6-.9-1-.6-1.4 1zM1148 1923.1c0 .4.6 1 1.3 1.2 1 .4 1 .6 0 .6-2.1.1-1.5 1.7.6 1.7 1.5 0 1.7-.4 1.1-1.7-.5-.9-.7-1.8-.5-2.1.3-.3-.2-.5-1-.5s-1.5.4-1.5.8zM1144.6 1927.5c-.3.8-.1 1.5.4 1.5.6 0 1 .7 1 1.5 0 1.3.2 1.4 1.4.3 1.2-1.1 1.2-1.4 0-2.1-.8-.5-1.2-1.2-.9-1.8.4-.5.2-.9-.3-.9-.6 0-1.2.7-1.6 1.5zM1140.5 1928.9c-.6 1.1 1.3 2.6 2.2 1.7.4-.3.1-.6-.6-.6s-.9-.5-.6-1c.3-.6.4-1 .1-1-.3 0-.7.4-1.1.9zM1084.5 1934c-.3.5-.1 1 .4 1 .6 0 1.1-.5 1.1-1 0-.6-.2-1-.4-1-.3 0-.8.4-1.1 1zM1148.4 1937.4c.5 2 .4 2.6-.5 2-.8-.5-1.1-.1-.7 1.3.3 1.2.2 2.7-.3 3.4-.5.8-.3 1.6.4 2.1.7.4.2.6-1.1.5-2.3-.1-6.5-3.7-4.4-3.7.6 0 1.4.4 1.7 1 .9 1.5 2.5 1.2 2.5-.6 0-.8-.4-1.2-1-.9-.5.3-1 .2-1-.4 0-.6-.8-.7-1.7-.4-1.3.5-1.5.2-1-1.1.4-1.1.3-1.5-.4-1.1-.6.4-.8 1.3-.5 2.1.3.8-.1 1.7-1 2.1-1.5.5-3.9 5-3.6 6.5.2 1-3.2 1-4.1.1-.4-.3-.1-1.3.6-2.2 1-1.4 1-1.4-.3-.4-.9.6-2.9 1-4.5.8-1.6-.1-3.8.3-4.8 1-1.7 1.2-1.7 1.3 0 1.9 1.5.6 1.5.9.3 1.7-1.3.9-1.3 1 0 .6.8-.2 1.4-1.4 1.3-2.6-.3-2.3 1.2-2.9 2-.7.6 1.6 4.7 2.9 4.7 1.4 0-.5.5-.6 1-.3 1.9 1.2-.1 2.4-2.9 1.9-1.6-.4-3.2-.1-3.5.5-.4.6-.2 1.1.5 1.1.9 0 .9.4-.1 1.5-.6.8-.9 1.9-.5 2.5.3.5.1 1-.5 1-.8 0-1-.9-.6-2.5.5-1.8.2-2.5-.8-2.5-.8 0-1.8.4-2.1 1-.3.5-.1 1 .5 1s.8.5.4 1.1c-.5.8-.9.8-1.4-.1-.4-.7-1.3-.9-1.9-.5-.9.5-.7 1 .5 1.9 1.4 1.1 1.5 1.6.5 3.2-1.2 1.8-1.2 1.8-.8-.1.3-1.6-.1-2.1-1.7-2.3-1.7-.1-1.8.1-.6.8 1.1.7 1.1 1 .2 1-.7 0-1 .4-.7 1 .3.5.1 1.9-.5 3.1-.9 1.6-1.5 1.8-2.3 1-.9-.9-.8-1.4.2-2 1.6-1 2.4-7.1.9-7.1-.5 0-.7-.4-.3-.9.3-.6-.5-1.5-1.7-2.1-2-1-2.1-.9-.6.2 1.5 1.3 1.5 1.5 0 2.7-1.6 1.1-1.5 1.1.1.6 1.2-.3 1.7-.1 1.5.7-.3.7-1.9 1.7-3.6 2.2-1.8.5-3.2 1.3-3.2 1.7 0 .5-1 1.3-2.1 2-1.5.8-1.9.8-1.5 0 .4-.6.2-1.1-.3-1.1-.6 0-1.1.7-1.1 1.5s-.7 1.5-1.6 1.5c-.9 0-1.2-.5-.8-1.2.4-.7.3-.8-.5-.4-.6.4-2 .2-2.9-.5-1.3-1.1-1.2-.8.2.9 1.1 1.2 2.7 2.2 3.6 2.2.9 0 2.5.9 3.5 2s1.3 2 .7 2c-.6 0-1.2-.5-1.4-1.2-.2-.6-2-1.2-3.9-1.3-2.9-.2-3.5.2-3.4 1.6.1 1 .5 2.2 1 2.6.4.5.5.1 0-.7-.5-.8-.4-1.2 0-.7.5.4 1 1.7 1.2 2.8.2 1.6-.1 2-1.2 1.5-.8-.3-1.5-.1-1.5.5s-.4.7-1 .4c-.5-.3-1-.2-1 .4 0 .5.6 1.1 1.3 1.4.7.2.8.8.3 1.3s-1.1.4-1.3-.4c-.3-.6-.9-1-1.3-.7-.5.3-1.2 0-1.6-.6-.4-.8-.3-.9.4-.5s1.2.3 1.2-.1c0-.5-.9-1.4-2-2.1-1.8-1.1-1.9-1-1.5 2.1l.5 3.2-1-3c-.5-1.7-.8-3.7-.5-4.5.3-1 0-.9-.9.3-.8 1-1.7 1.8-2 1.8-2.7-.3-3.6.2-3.6 2.1v2.2l1.5-2.1c1.6-2.4 4.5-2.1 4.5.3 0 1.1-.5 1.2-1.9.5-1.6-.9-1.8-.7-1.5 2.4.2 2.6-.1 3.2-1.2 2.8-.9-.3-1.3-1.2-1-1.9.3-.9-.4-1.6-2-2-2.3-.6-2.4-.7-.7-2 1.6-1.3 1.5-1.3-.9-.3-2.2 1-2.5 1.5-1.8 2.9 1.3 2.4-1.1 4.4-4.2 3.4-2-.6-2.1-.5-.9 1 1.6 1.9.6 3.5-1.1 1.8-2-2-3.2-1.3-1.3.8 1 1.1 1.3 2 .7 2-.7 0-1.2.7-1.2 1.5s-.4 1.5-1 1.5c-1.4 0-1.3-1.3.2-2.8.7-.7.8-1.2.2-1.2-.5 0-1.6.9-2.4 1.9-1.3 2-1.4 2-4.3-.1-2.7-2-2.9-2-2-.2 1.5 2.9.6 4.1-2.7 3.6-1.6-.2-2.8-.7-2.6-1.1.3-.4.1-1.3-.4-2.1-.7-1.1-.8-.6-.7 1.5.2 2.8.5 3 4.5 3.1 2.4 0 4.6-.4 4.9-.9.4-.6.1-.7-.7-.2-.8.5-1.1.3-.9-.4.7-1.9 2.4-1.4 2.7.9.2 1.3-.2 2-1.2 2-.9 0-1.6.5-1.6 1.1 0 .5.6.7 1.3.3.8-.5.8-.2-.2.9-1.4 1.8-2.2 2.2-2 .9.1-.4.1-1.4 0-2.2-.1-1.2-.5-1.1-1.6.4-1.5 1.9-1.5 1.9-1.5-.2 0-1.5-.5-2-1.5-1.6-.8.4-1.2 1.1-.8 1.7.4.6.1.7-.6.3-.7-.5-1.9 0-2.7 1-1.4 1.8-1.4 1.8-.4-.4.6-1.2 1.6-2.2 2.2-2.2.7 0 .5-.7-.5-1.8-1.6-1.5-1.9-1.5-2.8-.2-.8 1.1-1.2 1.2-1.6.2-.2-.6-.9-1-1.4-.6-1.9 1.1-.8-1.1 1.8-3.8l2.7-2.8-3.9.5c-2.2.2-3.5.1-2.8-.3.6-.4 1.3-2.3 1.5-4.2.1-1.9.8-3.8 1.3-4.2 1-.8-1.6-1.2-4.4-.8-1.3.1-1.3-.1-.2-1.4.9-1.1 1-1.6.2-1.6-.6 0-1.4.7-1.8 1.6-.5 1.3-.7 1.3-1.4.2s-.9-1.1-.9.1c0 .8-.6 1.1-1.6.7-2.5-.9-4.2 1.1-3.8 4.4.4 3.1-1 4.1-1.9 1.6-.3-.8-.1-1.6.6-1.9.7-.2.2-.9-1.1-1.6-2-1.1-2.1-1.5-1.1-2.9 1.1-1.4.9-1.4-.7.1-1.3 1.2-1.5 2-.8 2.5.6.4 1.1 1.5 1.1 2.4 0 1.4-.3 1.5-1.4.7-.9-.8-1.7-.8-2.6 0-.8.6-1.7.8-2 .5-.3-.4-1.2.5-1.8 1.9-.7 1.5-1.6 2.4-2 2.1-.5-.3-1.8-.7-2.8-.9-1.4-.3-1.8.1-1.4 1.2.3.8.8 1 1.2.5.4-.6 1.1-.5 1.8.3.9 1 .6 1.2-1.3 1.2-1.4 0-3.1-.8-3.7-1.8-1.4-2.3-2.7-2.5-2.7-.4 0 .8-.4 1.5-1 1.5-.5 0-1 .6-1 1.4 0 .8-.4 1.7-.9 2-.5.4-.7-.3-.4-1.4.3-1.1 0-2-.6-2s-1.1.4-1.1 1c0 .5-.5 1-1.1 1-.5 0-.7-.6-.3-1.3.6-.9.5-.9-.7 0-.8.6-1.8 1.2-2.4 1.3-.5.1-.9.8-.7 1.7.2.8-.1 1.2-.7.8-1.4-.8-1.4-4.5 0-4.5.5 0 .7-.5.3-1.1-.4-.8-1.2-.2-2.1 1.5-.7 1.4-1.8 2.6-2.4 2.6-.6 0-.8-.4-.4-.9.3-.5.1-1.2-.4-1.6-.6-.3-.8.3-.6 1.5.4 2.2-1 3.6-2 2-.3-.5-1.5-1-2.6-1s-1.7.5-1.4 1c.4.6.1.9-.7.8-.8-.2-1.2.5-1 2.1.2 1.5 0 2.1-.7 1.6-.6-.3-.9-.9-.7-1.3.2-.4-.2-1.2-.9-1.9-1-.9-1.4-.9-1.8.1-.3.8-.1 1.8.4 2.3.6.6.4 1.5-.7 2.4-1.6 1.2-1.7 1.2-1.1-.4.4-1.1.3-1.6-.3-1.2-.6.3-1 1.2-1 1.9s-.7 1.3-1.5 1.3-1.2-.4-.9-.9c.3-.4 0-.8-.6-.8s-.8-.5-.5-1c.4-.6 1.1-.7 1.7-.4.6.4.8.2.5-.3-.9-1.4-5.4-.4-6.1 1.4-.8 2 .3 3.6 2.1 2.9.8-.3 1.1-.1.8.4-.3.6-1.3 1-2 1-.9 0-1.2.6-.9 1.5.5 1.3.9 1.3 2.2.3 1.2-1 1.1-.7-.2 1.4-1 1.6-2.3 2.8-3 2.8-.7 0-.7-.3.1-.8 2.1-1.3-1.3-5.2-4.5-5.2-2.3.1-2.5.2-.9 1.1 1.3.8 1.5 1.4.7 2.9-1.3 2.4-1.3 3 .1 3 .5 0 .8-.4.4-.9-.3-.5-.1-1.2.4-1.5.5-.3 1.1.1 1.5.9.3.8.1 1.5-.5 1.5s-.7.5-.3 1.2c.5.8.2.9-1 .5-1-.4-2.5-.7-3.4-.8-1.1 0-1.2-.2-.4-.6.6-.2 1-.9.6-1.4-.3-.5-.1-.9.4-.9s.9-.7.9-1.5c0-2.4-3.5 1.7-4.3 5.1-.7 2.5-.8 2.6-1.5.9-.7-1.8-.8-1.8-.8-.2-.1 1 1 2.2 2.4 2.7s2.5 1.3 2.5 1.6c0 .4-.3.4-.7.1-1-1.1-3.3 1.3-3.3 3.4 0 1.1-.4 1.9-1 1.9-.5 0-1-.6-1-1.4 0-2.3-1.9-2.9-3.5-1.2-1.7 1.7-2 3.6-.4 3.6.5 0 .8-.3.6-.8-.3-.4.1-1.3.9-2 1.1-1 1.4-1 1.4.1 0 .8-.7 2.1-1.6 2.8-1.4 1.1-1.8 1-3-.6-1.4-1.8-1.4-1.8-1.4.3 0 1.6.6 2.2 2.3 2.2 1.3 0 2.8-.5 3.5-1.2.9-.9 1.3-.7 1.8.6.4 1 .1 2.3-.6 2.9-1 1-1.2.8-.7-.5.4-1.2.2-1.5-.9-1.1-1.6.6-1.8 1.9-.4 2.8.6.4.8 1 .5 1.5-.3.4.2 1.1 1.1 1.4 1.1.4 1.5.2 1.1-.7-.3-.8.3-1.3 1.7-1.4 1.1 0 1.6.1.9.4-1 .3-1 .9 0 2.4 1.7 2.8 2.8 2.3 2.2-.9-.5-2.6-.5-2.6.5-.3.6 1.3.8 2.6.5 2.9-.3.3.4 1.1 1.5 1.9 1.1.8 2 2 2 2.6 0 .7-.6.4-1.4-.5-.7-1-1.6-1.5-1.9-1.1-.4.3-.1 1.3.6 2.1 1 1.3.9 1.4-.3.6-.8-.5-3.5-.9-6-1-2.5 0-3.7.1-2.7.3.9.3 1.5.9 1.2 1.4-.4.5.6.4 2.1-.1 2.2-.9 3.1-.8 4.3.4 1.3 1.4 1.1 1.5-1.7 1.2-1.7-.3-3.4-.1-3.7.4-.3.5.4.7 1.5.5 1.2-.2 2.3.2 2.7 1 .9 2.6 9.3 1.4 9.3-1.2 0-.9.6-1.3 1.4-1 .8.3 1.6-.2 1.9-1.4.3-1.2.1-1.7-.6-1.3-.7.3-.4-.1.6-.9.9-.8 1.7-2 1.7-2.8 0-.8 1.8-2.3 4-3.3 2.2-1.1 4-2.5 4-3.3 0-.7.5-1.3 1-1.3.6 0 1-.7 1-1.5 0-1.8 1.6-2 2.4-.3.4.9.5.8.5-.2-.3-3.8 0-4.1 2.4-2.6 1.6 1.1 2.6 1.2 3.7.5 1.3-.9 1.2-1-.2-.6-.9.3-2.7-.4-4.2-1.8-2.7-2.5-3.4-4.5-1.6-4.5.6 0 1 .7 1 1.6 0 1.3.3 1.4 1.3.5 1.1-.8 1.9-.5 3.5 1.4 1.2 1.4 2.2 3 2.2 3.5 0 .6.6.9 1.3.8.6-.2 1.1.5 1.1 1.5-.2 1.5.1 1.6 1.4.5 1.3-1.1 1.5-1 1 .4-.4 1-.1 1.9.8 2.2.9.3 1.2 1.1.9 1.6-.4.6-.3 1 .2.9.4-.1 1.6.1 2.5.5 2.3 1 1.2 2.9-1.2 2.1-1-.3-2.1-.2-2.4.3-.2.4 1.2.8 3.2.8 3-.1 3.7.3 3.7 1.9 0 1.1.8 2.1 1.8 2.3.9.2 1.7.8 1.7 1.3s.9.9 2 .9c1.4 0 1.8.5 1.3 1.7s-.3 1.4.8.8c1.2-.8 1.2-.6 0 .8-.8 1-.9 1.7-.3 1.7.6 0 1.4-.4 1.7-1 .3-.5 1.6-1.5 2.8-2 2-1 2-1 .5.3-1 .8-1.8 2.2-1.8 3.2 0 1.4.3 1.3 1.9-.6 1.7-2.1 1.9-2.2 1.8-.5-.1 1 .4 2 1.1 2.2.7.1.8 0 .3-.2-.5-.3-.6-1.4-.3-2.6.5-2 .5-2 1.9.3.9 1.4 1.2 1.7.9.6-.4-1.2-.2-1.7.6-1.4.7.2 1.1 1.1 1 1.8-.2.8 0 1.1.4.6 1.1-1.1 1.6-4.9.5-4.3-.5.3-1.1 0-1.4-.8-.4-1 .5-1.6 3-2.1 1.9-.3 3.8-.4 4.1-.1.3.3-.4.6-1.5.6-2.7 0-2.9 4.5-.2 4.7 1 .1 1.8-.1 1.6-.5-.3-1 .9-1.1 3.3-.5 1.3.4 2 1.4 2.1 3.2 0 2.3.1 2.4.9.6.6-1.3.9-1.5.9-.5.1 1.2.3 1.2 1 .1.7-1 1.3-1.1 3.1-.1 2.1 1.1 2.2 1.1 1.6-1.4-.5-2-.3-2.4.9-2 1 .4 1.3 1.3 1 2.5-.4 1.1-.2 1.9.4 1.9.6 0 1.1-.7 1.1-1.5 0-1.9 1.4-1.9 3.4.1 1.5 1.4 1.8 1.4 3.3-.2 2.2-2.2 2.6-4.9.9-6.3-1.1-.9-1.7-.8-2.9.3-1.7 1.8-7.7 1.7-7-.1.6-1.4 3-2.5 6.3-2.8 5.6-.4 5.6-.4 4-1.5-1.3-.8-1.2-1 .3-1 2 0 2.2 1.1.5 2.9-1.1 1-.8 1.1 1.5.6 1.7-.5 2.7-.3 2.7.4 0 .6-.6 1-1.2.8-.8-.1-1.2.7-1.1 2.1.2 1.3-.1 2.1-.6 1.8-.5-.4-.6.4-.3 1.6.5 1.9.7 2 1 .5.3-1.6 1.3-2.1 3.8-1.8.7.1 1.5-.6 1.8-1.5.5-1.3.9-1.4 2.1-.4.8.7 1.2 1.6.9 2.1-.3.5.3.6 1.2.2 1.1-.4 1.3-.8.6-1.1-2.1-.7-3.4-3.9-1.7-4.5.9-.4 1.2-.1.8.9-.3.8.1 1.4 1 1.4 1 0 1.4-.7 1-2.3-.4-2.1-.4-2.1 1.1-.3.8 1 1.3 2.3 1 2.7-.3.5-.1.9.5.9.5 0 1.3-.5 1.6-1 .3-.6.1-1-.6-1s-1-.3-.7-.6c.4-.3 1.5-.1 2.5.4s3 1.2 4.5 1.6c2.3.5 2.6.4 2.1-1.1-.6-1.7-.5-1.7 1.4-.1 2.2 2 4.3 2.3 4.3.7 0-.5.5-.7 1-.4.6.4.8 1 .5 1.5-.8 1.3 2.4 3.3 4.2 2.5 1.2-.5 1.4-.9.6-1.2-.7-.3-1.3-.9-1.3-1.5s.6-.6 1.5.2c.8.7 2.2 1 3 .6 1.1-.4 1.5.1 1.5 1.6 0 1.7-.3 1.9-1.2 1-1.6-1.6-2.9-1.5-2.2.2.3.8 1.7 1.6 3 1.9 1.9.3 2.4.1 2.2-1.2-.2-.9.5-2.4 1.4-3.3 2.5-2.5 3.5-2.3 1.3.2-1 1.1-1.3 2-.7 2 .7 0 1.2-.4 1.2-1 0-.5 1.1-1.2 2.5-1.6 1.4-.3 2.5-1.1 2.5-1.6 0-.6 1.1-.7 2.5-.4 2.5.7 3.5-.8 1.3-1.8-.7-.3-.3-.3.9-.1 1.2.3 2.4.1 2.7-.4.4-.6 1.3-.8 2.1-.4.8.3 1.5 0 1.5-.6 0-.7 1.1-.9 2.8-.6 1.5.3 2.1.2 1.5-.1-1.7-.7.2-4.4 2.2-4.4.7 0 1.5-.6 1.8-1.3.3-.9.8-.8 2.3.3 1.8 1.4 1.8 1.4.2-1-1.4-2.3-1.4-2.8-.2-4.5.8-1.1 1.2-2.5 1-3.2-.7-1.7 1-1.7 1.8-.1.3.7.4.1.1-1.3-.3-1.7.1-3.1 1-3.9 1.3-1.1 1.4-1 .9.5-.5 1.3-.3 1.6.7 1.3.8-.3 1.3-1.2 1.1-2.1-.2-1.2.2-1.5 1.5-1.1 1.7.5 1.7.5.1-.6-2.4-1.5-2.3-3 .2-2.5 1.1.2 1.8 0 1.5-.5-1.1-1.8 1.7-2.1 3.8-.4 1.2 1 1.7 1.2 1 .5-1.6-1.9-.5-4.5 1.3-3 1 .8 1.4.8 1.4 0 0-.6 0-1.4.1-1.9.1-1 4.2-3.1 5.1-2.6.5.3.8-.2.8-1 0-1.1-1-1.6-3.2-1.6-1.8 0-4.6-.7-6.2-1.5-3.6-1.9-4.2-1.9-2.5.2 1.3 1.5 1.2 1.5-.6.6-1.1-.6-3-.9-4.2-.8-1.3.1-2.3-.3-2.3-.8 0-.6-.3-.7-.7-.4-.3.4-1.2-.1-1.9-1.1-1.1-1.3-1.3-1.4-1.4-.2 0 1-.5.7-1.6-.8-1.3-1.9-1.8-2.1-3.2-1-1.2 1.1-1.6 1.1-2 0-.3-1-.7-1-1.8-.1-.9.8-1.4.8-1.4.1 0-.6.5-1.4 1-1.7.6-.3 1-1.2.9-1.8 0-.9-.2-.9-.6 0-.2.7-.9 1.3-1.4 1.3-.5 0-.4-.9.3-1.9.6-1.1 1.8-1.7 2.6-1.3 1.1.4 1.3.1.7-.9-.6-1.1-.5-1.2.6-.2 1 1 1 1.6.1 2.5-1.7 1.7-1.5 3.3.3 1.8.8-.6 2-.8 2.6-.4.9.5 1 .2.6-1-.4-.9-.3-1.4.2-1.1.5.3 1.7-.5 2.5-1.7 1.4-2 1.6-2.1 1.6-.4 0 1.1.3 1.6.7 1.3.3-.4 1.2.1 1.9 1 1.1 1.5 1.1 1.4.7-1-.4-2.3-.2-2.6 1.2-2.1 1.1.5 1.3.9.5 1.4-.8.5-.7.9.5 1.4.9.3 1.3 1.1.9 1.7-.4.8-.3.9.4.5.6-.4.9-1.3.6-2-.3-.8.4-1.6 1.5-1.9 1.2-.3 2.1-.1 2.1.4s.5.9 1.1.9c.8 0 .8-.4 0-1.4-.7-.8-1.9-1.3-2.9-1.1-.9.1-1.1 0-.4-.2.6-.3 1.2-.9 1.2-1.5s1.2.1 2.6 1.6c1.5 1.4 3.4 2.6 4.3 2.6 1.4 0 1.4-.2.1-1-.8-.5-1-1-.5-1 .6 0 .3-.4-.5-1-1.2-.8-1.2-1 .4-1.6 1.1-.4 2.1-.2 2.7.7.6 1 .9 1 .9.2 0-.7.7-1 1.7-.6 1.1.4 1.4.3.9-.6-.5-.7-1.3-1-2-.8-.7.3-1.1-.7-1.1-2.4 0-2.9.5-3.5 1.8-2.2 1.2 1.1 5.4.9 5.4-.3 0-.6-.8-.9-1.8-.7-1.6.5-1.8 0-1.4-3.7.2-2.3.1-3.9-.2-3.6-.4.3-.8 1.8-.9 3.2-.4 3.3-.7 3.6-2.8 2.8-1.1-.4-1.6-1.4-1.3-2.5.3-1.1.2-1.9-.2-1.9-1.2 0-2.9-6.6-2.7-10 .1-1.6-.1-3.1-.6-3.2-.4-.2-.9-1.2-1.1-2.3-.1-1.1-.6-2.6-1-3.3-.5-.7-.3-1.2.3-1.2.7 0 .8-.6.1-1.8-.5-1-.9-5.3-.7-9.6.1-4.2-.2-8-.7-8.3-.6-.4-.7.5-.3 2.1zm-6.4 9.6c1.2 2.3 1.2 2.4-.3 1.1-1.1-.9-1.7-1-1.7-.2 0 .6-.5 1.1-1 1.1-1.3 0-.9-3.2.5-4.2.5-.4 1-.6 1.1-.5.1.1.7 1.3 1.4 2.7zm4.1 3.3c-1 .9-1.1.8-.5-.6.3-1 .9-1.5 1.2-1.2.3.3 0 1.1-.7 1.8zm-14.8 5.4c.9.9-1.2 3.3-2.9 3.3-.8 0-1.4-.5-1.4-1 0-.6.3-.9.8-.9.4.1 1.4.1 2.2-.1 1.1-.1.9-.4-.5-1-1.5-.6-1.6-.9-.4-.9.9-.1 1.9.2 2.2.6zm2.2 3.3c-.3.5-1.2 1-1.8 1-.7 0-.6-.4.3-1 1.9-1.2 2.3-1.2 1.5 0zm-21.4 5.8c-.6 1.1-.6 2.4 0 3.5.8 1.3.7 1.5-.6 1.1-1.3-.6-1.6-3.8-.6-7.2.1-.2.6 0 1.1.3.6.4.7 1.3.1 2.3zm-3.5.9c-1 1-1.9-.5-1-1.8.6-1.1.8-1.1 1.2 0 .2.7.1 1.5-.2 1.8zm-3.6 2.3c0 .5-.2 1-.4 1-.3 0-.8-.5-1.1-1-.3-.6-.1-1 .4-1 .6 0 1.1.4 1.1 1zm-3.8 4.2c-.7.7-1.2.8-1.2.2 0-1.4 1.2-2.6 1.9-1.9.2.3-.1 1.1-.7 1.7zm9.9-.8c.5-.3.9 0 .9.6 0 1.5-2.3.7-2.6-.8-.1-.7 0-.8.3-.2.2.5.9.8 1.4.4zm-75.1 8c0 .3-.4.8-1 1.1-.5.3-1 .1-1-.4 0-.6.5-1.1 1-1.1.6 0 1 .2 1 .4zm65.4 1.2c.3.8.2 1.2-.4.9-.6-.3-1-1-1-1.6 0-1.4.7-1.1 1.4.7zm5 0c.5 1.4.4 1.5-.9.4-1.7-1.4-1.9-2-.6-2 .5 0 1.2.7 1.5 1.6zm-6.6 3.9c0 1.4-.5 2.8-1.1 3.2-.6.3-.7.1-.3-.5 1-1.6-.7-1.5-2.4 0-.7.7-.3-.3 1-2.2 1.6-2.4 1.9-3 .7-2.1-2 1.6-3.2.9-2.3-1.4.9-2.5 4.4-.1 4.4 3zm-6.2-2.4c.3.6.1 1.6-.6 2.2-.9.9-1.1.8-.8-.3.2-.8-.3-1.4-1-1.2-.8.1-1.1-.2-.7-.8.8-1.3 2.2-1.3 3.1.1zm10.9 3.9c1.1 1.4 1.3 1.9.5 1.2-1.9-1.6-3.3-1.5-2.7.1.7 1.9-.8 4.3-1.7 2.8-.4-.6-.3-1.1.3-1.1s.8-.7.5-1.5c-.6-1.3.3-5.4.9-4.4.1.2 1.1 1.5 2.2 2.9zm2.9-1.5c-.4.8-.7 1.5-.9 1.5-.2 0-.5-.7-.9-1.5-.3-.9 0-1.5.9-1.5s1.2.6.9 1.5zm-27.4.7c0 .4-.4.8-.9.8-.6 0-1.2-.4-1.5-.8-.3-.5.1-.9.9-.9s1.5.4 1.5.9zm74.3-.5c-.7.2-1.9.2-2.5 0-.7-.3-.2-.5 1.2-.5s1.9.2 1.3.5zm-77.9 2.7c-.3.9-1.2 1.2-2.2.9-1.5-.6-.9-1.1 2.5-2.2.1-.1 0 .5-.3 1.3zm45.1 1.6c.3.5.1 1-.4 1-.6 0-1.1-.5-1.1-1 0-.6.2-1 .4-1 .3 0 .8.4 1.1 1zm-77.5 3.5c0 1.4-.2 2.5-.4 2.5s-.6-1.1-.8-2.5c-.3-1.4-.1-2.5.3-2.5.5 0 .9 1.1.9 2.5zm-3.6 2c-.4.8-1.1 1.5-1.6 1.5-.6 0-.5-.6.2-1.5.7-.8 1.4-1.5 1.6-1.5.2 0 .1.7-.2 1.5zm32.3 2.7c-.3.8-.6.5-.6-.6-.1-1.1.2-1.7.5-1.3.3.3.4 1.2.1 1.9zm-27 .3c0 .8-.4 1.2-.9.9-.5-.3-.6-1-.3-1.5.9-1.3 1.2-1.1 1.2.6zm-4.1 1.7c0 1-.3 1.8-.6 1.8s-1-.8-1.6-1.8c-.9-1.4-.8-1.8.5-1.8.9 0 1.7.8 1.7 1.8zm-5.9 1.3c0 .8-.4 1.2-.9.9-.5-.3-.6-1-.3-1.5.9-1.3 1.2-1.1 1.2.6zm-50.3 1.6c-.3.5-1 .7-1.5.3-.5-.3-.7-1-.3-1.5.3-.5 1-.7 1.5-.3.5.3.7 1 .3 1.5zm67.7 1.2c-1 .9-1.1.8-.5-.6.3-1 .9-1.5 1.2-1.2.3.3 0 1.1-.7 1.8zm8.9-.9c0 .2-.7.7-1.6 1-.8.3-1.2.2-.9-.4.6-1 2.5-1.4 2.5-.6zm91.9 1.8c.8-.3 1.1 0 .7.7-.4.6-1.3 1.1-2.1 1.1-.7 0-1.5.3-1.8.7-.2.5-.3.3-.1-.3.1-.6-.3-1.7-.9-2.4-1-1-.8-1 .8-.3 1.1.6 2.6.8 3.4.5zM1030 2007c0 .5-.4 1-1 1-.5 0-1-.5-1-1 0-.6.5-1 1-1 .6 0 1 .4 1 1zm118.3.9c-.5 1.9-2.6 2.2-4 .6-.4-.4-.2-.5.5-.1s1.5.1 1.8-.8c.9-2.3 2.3-2 1.7.3zm-114.8.1c.3.5.1 1-.4 1-.6 0-1.1-.5-1.1-1 0-.6.2-1 .4-1 .3 0 .8.4 1.1 1zm-22.1.8c.3.5-.1.9-.9.9s-1.2-.4-.9-.9c.3-.4.7-.8.9-.8.2 0 .6.4.9.8zm130.6 1.6c0 .3-.4.8-1 1.1-.5.3-1 .1-1-.4 0-.6.5-1.1 1-1.1.6 0 1 .2 1 .4zm-177.5 4.6c-.3.5-1.2.7-2 .3-2.1-.7-1.9-1.3.6-1.3 1.1 0 1.8.4 1.4 1zm2.6.3c-.6.8-.7 1.8-.3 2.2.4.5.2.5-.5.1-1.4-.8-.6-3.6.9-3.6.7 0 .6.5-.1 1.3zm172.9-.5c0 .4-1 .9-2.2.9-1.8.2-2 0-.8-.7 1.8-1.2 3-1.3 3-.2zm-175.1 5c-.1.4 0 .9.1 1.2.1.3.3 1.3.5 2.3.3 1.4 0 1.6-1 .7-.7-.6-2.1-.7-3.1-.4-1.8.6-1.7.5.1-1 1.6-1.4 1.7-1.7.3-1.2-1.1.3-1.5 0-1.2-.7.5-1.3 4.4-2.1 4.3-.9zm23.4.6c.4 1 0 1.2-1.4.9-1-.3-1.6-.9-1.3-1.4.8-1.3 2.1-1.1 2.7.5zm-17.8 1.5c.3.5.2 1.2-.3 1.5-.5.3-.9-.1-.9-.9 0-1.7.3-1.9 1.2-.6zm-4.1 5c.2.3-1.3.6-3.5.6-3.6 0-4.6-.5-3.4-1.7.6-.6 6.4.2 6.9 1.1zm161.4.5c-.7.8-1.5 1.2-1.7 1.1-.5-.6 1-2.5 2-2.5.5 0 .4.6-.3 1.4zm4.9.4c-.2 2.9-2.3 4.4-3.7 2.7-.9-1-.7-1.5.9-2 1.2-.3 2.1-1.1 2.1-1.6s.2-.9.4-.9c.3 0 .4.8.3 1.8zm-74.7-.3c0 .2-.9.9-1.9 1.5-1.4.7-2.2.7-2.7-.2-.4-.6-.3-.8.2-.5.6.3 1.6.2 2.4-.4 1.7-1 2-1.1 2-.4zm-92 3.5c0 1.1-.2 2-.4 2s-.6-.9-.9-2c-.3-1.1-.1-2 .4-2s.9.9.9 2zm84 0c0 .5-.4 1-1 1-.5 0-1-.5-1-1 0-.6.5-1 1-1 .6 0 1 .4 1 1zm15.2.9c.8-1.1.9-1.1.6-.1-.4 1.6-2.2 1.8-2.4.2-.2-.7-.1-.6.3.1.4.8.8.7 1.5-.2zm-12.6 3.9c-1.7 1.6-1.8 1.6-.5-.5.7-1.2 1.5-2 1.8-1.7.3.2-.3 1.2-1.3 2.2zm5.4-1.4c0 .2-.7.7-1.6 1-.8.3-1.2.2-.9-.4.6-1 2.5-1.4 2.5-.6zm68 .6c0 .3-.8 1-1.8 1.6-1.5 1-1.8.8-1.9-.7-.1-1.2.5-1.7 1.8-1.6 1 .1 1.9.4 1.9.7zm-61.6 1.6c.3.8.2 1.2-.4.9-.6-.3-1-1-1-1.6 0-1.4.7-1.1 1.4.7zm-92.8 1.3c0 1.1-.4 1.7-.8 1.5-.4-.3-.8-1.2-.8-2s.4-1.4.8-1.4.8.9.8 1.9zm105.9.1c.3.5.1 1-.4 1-.6 0-1.1-.5-1.1-1 0-.6.2-1 .4-1 .3 0 .8.4 1.1 1zm7.5 2.2c0 1.2-1.2.9-3.2-.6-2.6-1.9-2.2-2.7.7-1.4 1.4.6 2.5 1.5 2.5 2zm5.7 1c-.3.7-.5.2-.5-1.2s.2-1.9.5-1.3c.2.7.2 1.9 0 2.5zm-43.2-.2c.3.5.2 1-.4 1-.5 0-1.3-.5-1.6-1-.3-.6-.2-1 .4-1 .5 0 1.3.4 1.6 1zm19.2 1.6c-.3.3-1.2.4-1.9.1-.8-.3-.5-.6.6-.6 1.1-.1 1.7.2 1.3.5zm-19.7 1.4c0 .5-.2 1-.4 1-.3 0-.8-.5-1.1-1-.3-.6-.1-1 .4-1 .6 0 1.1.4 1.1 1zm11 1c1.3.8 1.3 1-.2 1-.9 0-2-.5-2.3-1-.8-1.3.5-1.3 2.5 0zM858.9 1949.2c1.1 1.5 4.1 1.5 4.1.1 0-.3-.6-.3-1.4 0-.7.3-2 0-2.7-.6-1.1-1-1.1-.9 0 .5z"/><path d="M1118 1951c-1.3.8-1.2 1 .3 1 .9 0 1.7-.5 1.7-1 0-1.2-.1-1.2-2 0zM848 1952.1c0 .5-.8.9-1.7.9-1.2.1-.7.6 1.2 1.5 2.6 1.2 2.7 1.3.8 1.4-1.2.1-2.5.6-2.9 1.2-.4.7 0 .9 1.4.5 1.1-.4 2.3-.2 2.7.4.4.6.3.9-.2.8-.4-.2-.9.1-1 .7-.2.5.3 1 1 1.1 3.3.3 3.8.5 3.1 1.5-.4.8-.9.7-1.5-.2-1.3-2.2-2.2-.3-.9 2.1.9 1.7.8 2.5-.4 3.9-2 2.2-2 3.2-.1 2.5.8-.4 1.5-.1 1.5.5s-.5 1.1-1.2 1.1c-.6 0-.9.3-.5.6.3.3 1.2.2 1.9-.2 1.7-1.1 4.8-1.3 4.2-.2-.3.4-1.1.8-1.9.8-.8 0-1.7.5-2.1 1.2-.5.7-.3.8.6.3.7-.4 1.6-.2 2.1.6.6 1.1 1.2.9 2.9-.6l2.1-1.9-1 2.8c-1 2.5-.9 2.7 1 2.1 1.6-.5 1.9-.4 1.4.5s-.2 1 1.2.6c1.2-.4 2.5-.1 3.2.8 1.6 1.9 4.2 1 3.4-1.2-.4-.9-.3-1.4.1-1 .4.3.9 1.4 1.1 2.5.1 1 .8 1.7 1.4 1.5.6-.1 1.1.3 1.1.9 0 .5.6.7 1.3.3.9-.6.9-.5 0 .7-1 1.3-1 1.6.2 1.6.8 0 1.5-.4 1.5-.9s.5-.6 1-.3c.7.4.7 1.2 0 2.5-1.2 2.3-.3 3 4.8 3.5 2 .2 2.9.1 2-.2-1-.2-1.8-.8-1.8-1.2 0-.5-1.2-.6-2.7-.3l-2.8.5 2.3-2.6 2.3-2.5 3.1 3c1.6 1.6 3.3 2.7 3.6 2.3.4-.3 0-1-.8-1.5-1.2-.8-1-1 .9-1 1.8 0 2.2.4 1.6 1.7-.5 1.5-.4 1.6.6.5 1.8-1.7 2.9-1.5 2.2.5-.3 1-.3 1.5.2 1.1.4-.4 1.4-.3 2.1.2.6.6 1.7.9 2.2.8.6-.2 1.8.6 2.6 1.7 1.1 1.4 1.5 1.5 1.4.5-.2-.9.4-1.4 1.5-1.4 1.2.1 1.7-.6 1.7-2.5s.3-2.2.9-1.2c.6.9.6 2.2.1 3.1-1.2 2.3.3 4.3 2.7 3.6 1.7-.6 2-.2 1.7 2-.2 2.5-.2 2.5 1.7.8 1.5-1.3 1.7-1.9.7-2.6-1.1-.6-1-.8 0-.8.7 0 1.2-.8 1-1.8-.2-1.1.3-1.7 1.7-1.7 1.2 0 1.9.6 1.7 1.4-.2.8.3 1.8 1 2.2 1.8 1.2 2.8 1.1 2.8-.1 0-.6-.6-1-1.3-1-1.5 0-1.6-3.8-.2-6 .7-1.1.2-1-1.9.3-1.5 1-3 1.6-3.4 1.3-.3-.3 0-.6.6-.6.7 0 1.2-.4 1.2-.9s-1-.7-2.2-.4c-2.2.4-2.2.4-.4-1.1 1.6-1.3 2.2-1.3 3.5-.3 1.2 1 1.4.9.8-.7-.5-1.3-.3-1.7.6-1.3.8.3 1.4-.1 1.4-.9 0-.7-.4-1.1-.9-.8-.4.3-.8-.1-.8-.8 0-1-.2-1.1-.8 0-1 1.4-4.2.6-4.2-1.2 0-.6-.7-.3-1.4.7-1.1 1.5-1.6 1.5-2.7.5-2-1.9-4.2-1.6-5.7.7-1.3 2-1.3 1.9-.9-.2.4-1.9 0-2.2-2.9-2.5-1.9-.2-3.3-.6-3.2-.9.2-.3-.3-1.3-1-2.1-1-1.3-.9-1.8.5-2.9 1.5-1.2 1.6-1.2 1.1.2-.3.9-.2 2.2.3 3 1 1.7 5.6 2.2 6.5.7.5-.8-.3-.9-2.4-.5-2.4.5-3 .3-2.6-.7.7-1.7-3.2-8.1-4-6.8-.3.6-.1 1.2.5 1.4.7.2.4 1-.7 1.8-1 .8-1.5 1-1.2.5.4-.6.3-1.7-.3-2.5-.7-1.2-.9-1.1-1 .5 0 1.1-.3 1.4-.6.7-.3-.8-.9-.9-1.6-.4-2.3 1.7-4.5 2.1-5 .8-.4-1 .1-1.2 1.5-.8 1.5.4 1.9.1 1.7-1.3-.2-1-1.1-2.1-1.9-2.3-1.3-.5-1.3-.3 0 1.3 1.4 1.7 1.4 1.7-.7.4-1.5-.9-1.9-1.7-1.3-2.3.6-.6 1-1.6 1-2.4 0-1.2-.3-1.2-1.5-.2-.8.7-1.5 2.1-1.5 3.2 0 1-.4 1.7-1 1.3-.5-.3-.7-1.2-.3-2 .3-.8 0-1.5-.6-1.5s-1.1.6-1.1 1.2c0 .9-.3.8-1-.2-.5-.8-.7-2.6-.5-4 .3-1.4.2-1.9-.1-1.3-.4 1-.9 1-2-.1-.7-.8-2.5-1.3-3.8-1.2-2.2.3-2.3 0-1.6-2.5.6-1.8.4-2.9-.3-3.2-1.7-.6-4.2.6-4.2 2 0 .7-.3 1.2-.7 1-.4-.1-1.3.6-2.1 1.6-1.2 1.7-1.4 1.7-2.6.3-.7-.9-1.7-1.3-2.2-1-.5.3-.8 0-.7-.8.2-.7-.7-1.4-1.9-1.6-1.3-.2-2.3-.7-2.3-1.2s1.3-.5 2.9 0c2.3.6 3.3.4 4.3-.8 1.2-1.5 1.1-1.6-.4-.3-1.6 1.2-1.8 1.1-1.8-.4 0-1.4-.3-1.5-1.5-.5-.8.7-1.5.9-1.5.4s-1.1-1-2.5-1c-1.4-.1-2.5.2-2.5.7zm19 3.5c0 .8-.5 1.2-1 .9-.6-.4-.8-1.1-.5-1.6.9-1.4 1.5-1.1 1.5.7zm-7.7 7.1c-.4 1-.2 1.4.5.9 1.1-.7 2.8 3.1 1.8 4.1-.3.4-.6-.2-.6-1.3-.1-1.8-.1-1.8-1.4-.1-1.3 1.7-1.5 1.7-3.1 0-1.4-1.4-1.5-1.8-.4-2.2.8-.2 1.8-1 2.2-1.7 1.1-1.9 1.8-1.7 1 .3zm14.1 1.4c-.3.5-1.1.9-1.7.9-.7 0-.6-.4.3-1.1 1.2-.9 1-1-.8-.6-1.9.5-2.1.3-1.1-.9.9-1.1 1.5-1.1 2.5-.3.8.6 1.1 1.5.8 2zm-8.4 11.3c-.7.7-1.3.7-2 0-.6-.6-.3-1 1-1s1.6.4 1 1zm25.1 2.9c-1 .9-1.1.8-.5-.6.3-1 .9-1.5 1.2-1.2.3.3 0 1.1-.7 1.8zm-7.2 5.1c0 .7-.2.6-.6-.2-.2-.6-1.1-1.2-1.9-1.2-.9 0-1.2-.5-.9-1 .8-1.3 3.5.6 3.4 2.4zm15.1-3c0 .3-.4.8-1 1.1-.5.3-1 .1-1-.4 0-.6.5-1.1 1-1.1.6 0 1 .2 1 .4zm8.3 2c2.1 1.6 2.1 2.2.1 3-1.2.4-1.5.2-1-.9.3-.8.1-1.5-.4-1.5-.6 0-1 .4-1 1 0 .5-.4 1-.9 1-.7 0-.8-1.7-.2-3.8.2-.6 1.7 0 3.4 1.2zm6.7.6c0 .5-.4 1-.9 1-.6 0-1.3-.5-1.6-1-.3-.6.1-1 .9-1 .9 0 1.6.4 1.6 1zm-3.6 4.6c.9 2.4.2 2.6-1.2.4-.7-1.1-.8-2-.3-2s1.2.7 1.5 1.6z"/><path d="M857.5 1965c-.3.5-.1 1 .4 1 .6 0 1.1-.5 1.1-1 0-.6-.2-1-.4-1-.3 0-.8.4-1.1 1zM860.2 1954c-1.8 1.1-3 2.5-2.7 3 1 1.6 2.5 1.2 1.9-.5-.7-1.8.7-2 2.5-.3 1.1 1.1 1.3 1 .8-.4-.4-1.1 0-2.1 1.1-2.7.9-.6 1.3-1.1.7-1.1-.5 0-2.5.9-4.3 2zM1114 1953c0 .5.7 1 1.6 1 1 0 1.4.6 1 1.5-.7 1.9.5 1.9 3-.1 1-.8 1.4-1.3.8-1-.6.3-2-.1-3-.9-2.3-1.7-3.4-1.9-3.4-.5zM1106.5 1954.9c-.3.5 0 1.3.6 1.7.7.4.9.3.5-.4-.3-.5 0-1.3.6-1.5.9-.4 1-.6.1-.6-.6-.1-1.4.3-1.8.8zM1192.2 1959.6c-.7.8-.8 1.4-.3 1.4 1 0 2.5-1.9 2-2.5-.2-.1-1 .3-1.7 1.1zM1195 1960c0 .5.5 1 1 1 .6 0 1-.5 1-1 0-.6-.4-1-1-1-.5 0-1 .4-1 1zM877.6 1961.5c.4.8.1 1.5-.5 1.5s-1.1.4-1.1.9c0 1.7 3.8-.1 4.3-2 .4-1.4 0-1.9-1.4-1.9-1.2 0-1.6.5-1.3 1.5zM1101 1960.4c0 .2.7.7 1.6 1 .8.3 1.2.2.9-.4-.6-1-2.5-1.4-2.5-.6zM1180.9 1961.3c-1.5 1.1-1.5 1.4-.1 2.7 1.4 1.3 1.5 1.2.9-.2-.3-.9-.1-1.9.6-2.1.7-.2 1-.7.7-1-.3-.3-1.2 0-2.1.6zM1198 1960.4c0 .2.7.7 1.6 1 .8.3 1.2.2.9-.4-.6-1-2.5-1.4-2.5-.6zM1171 1961.9c0 .7-.5.9-1.2.5-.7-.5-.8-.3-.3.5.5.9 1 1 1.8.2.6-.6.8-1.4.4-1.8-.4-.3-.7-.1-.7.6zM1166.5 1962.7c.3.3-.2 1.7-1 3-1.7 2.5-1.1 3.1.8 1 1.4-1.4 1.6-3.2.5-4.1-.5-.3-.6-.3-.3.1zM884.5 1964c-.3.5-.1 1 .4 1 .6 0 1.1-.5 1.1-1 0-.6-.2-1-.4-1-.3 0-.8.4-1.1 1zM847.6 1965.5c.4.8.8 1.5 1 1.5.2 0 .4-.7.4-1.5s-.4-1.5-1-1.5c-.5 0-.7.7-.4 1.5zM1155 1965.1c0 .5.5.7 1 .4.6-.3 1-.8 1-1.1 0-.2-.4-.4-1-.4-.5 0-1 .5-1 1.1zM1172.9 1964.9c.8.5 1 1.4.6 2.2-.6 1.1-.5 1.1.5.2 1.4-1.2.6-3.3-1.3-3.3-.8 0-.7.3.2.9zM887.3 1967c-.1 1.3.4 1.6 1.8 1.3 2.4-.7 2.4-1 .1-2.2-1.4-.7-1.8-.6-1.9.9zM1089 1965.4c0 .2.7.7 1.6 1 .8.3 1.2.2.9-.4-.6-1-2.5-1.4-2.5-.6zM1093.3 1966.5c0 .8.4 1.2.9.9.5-.3.6-1 .3-1.5-.9-1.3-1.2-1.1-1.2.6zM1157 1968c1.2.8 1.2 1 .1 1-.8 0-1.2.2-.9.5.3.3 1.3.2 2.2-.1 1.4-.5 1.5-.9.4-1.5-.7-.5-1.7-.9-2.3-.9-.5 0-.3.5.5 1zM1168.6 1968.2c.3.4.9.8 1.5.8.5 0 .9-.4.9-.8 0-.5-.7-.9-1.5-.9s-1.2.4-.9.9zM1176 1970.5c-.7.9-.8 1.5-.2 1.5.5 0 1.2-.7 1.6-1.5.3-.8.4-1.5.2-1.5s-.9.7-1.6 1.5zM1182.5 1970.8c-1.1.8-1.3 3.7-.4 4.7.4.3.9-.8 1.1-2.5.3-1.6.4-3 .4-3-.1 0-.5.4-1.1.8zM1039.2 1972.5c.2 1.2-.2 1.9-1 1.7-.8-.1-1.1.2-.7.8.4.6 1.3.7 2.3.1 2.2-1.1 4.2-.4 4.2 1.5 0 .8.5 1.4 1 1.4 1.5 0 .8-3.1-1-5-1-1.1-1.8-1.3-2.2-.6-.5.7-1.2.6-1.8-.4-.9-1.2-1-1.2-.8.5zM1173 1972.7c0 .7.8 1.6 1.8 2.2 1.6.9 1.6 1.1-.1 2.3-1.1.8-1.7 2.3-1.5 3.4.2 1.2-.2 1.8-1 1.6-.8-.1-1.1.2-.7.8.9 1.5 3.5-.7 3.5-2.9.1-2.4 2.3-4.8 4-4.3.9.2.7-.2-.5-1.1-1.1-.8-2.4-1.3-2.9-1-.4.3-1.2-.1-1.7-.8-.6-.9-.9-1-.9-.2zM1090.6 1973.8c-.3.6.1 1.3 1 1.6 2.3.9 2.8.2 1-1.3-.8-.7-1.7-.8-2-.3zM1186.5 1974.1c-.4.6-.5 1.2-.2 1.5.2.3.7-.2 1-1.1.7-1.7.1-2-.8-.4zM903.7 1974.7c-1.3 1.2-.7 2.5.6 1.4.8-.6 1.8-.7 2.2-.3.5.4.5.1.1-.6-.8-1.3-1.9-1.6-2.9-.5z"/><path d="M1168.2 1976c-1 1.7-1.6 1.9-3.5 1-2-1-2-1-.5.3 1 .8 1.5 1.6 1.3 1.9-.3.3.1 1.1 1 1.8 1 .8 1.5.9 1.5.1 0-.6-.5-1.1-1.1-1.1-.6 0-.4-.7.5-1.5 1.8-1.9 3-1.9 2.3-.1-1 2.6.6 2.6 2-.1 1.1-2.1 1.1-2.8.1-3.5-1.9-1.1-2.2-1-3.6 1.2zM1194.7 1976.1c.7.7 1.5 1 1.8.7.3-.3-.2-.9-1.2-1.2-1.4-.6-1.5-.5-.6.5zM1178.2 1978.2c.5 1.5 2.8 2.3 2.8 1 0-.5-.7-1.3-1.6-1.6-1-.4-1.4-.1-1.2.6zM1023.6 1980.6c-.8 2.2-.4 2.5 1.1.9.7-.8.9-1.6.4-1.9-.5-.3-1.2.1-1.5 1zM867 1982.5c0 .5.5 1.7 1 2.5s1 1 1 .5c0-.6-.5-1.7-1-2.5s-1-1.1-1-.5zM1073.5 1983c-.3.5-.1 1 .4 1 .6 0 1.1-.5 1.1-1 0-.6-.2-1-.4-1-.3 0-.8.4-1.1 1zM1181 1983c0 .5.4 1 .9 1 .6 0 1.3-.5 1.6-1 .3-.6-.1-1-.9-1-.9 0-1.6.4-1.6 1zM1066 1984c-1.3.8-1.2 1 .3 1 .9 0 1.7-.5 1.7-1 0-1.2-.1-1.2-2 0zM1175 1984.1c0 .5.5.7 1.2.3.8-.5.9 0 .5 1.6s-.3 2 .5 1.2c.6-.6.8-1.8.5-2.6-.7-1.8-2.7-2.2-2.7-.5zM1012.5 1985c.3.5.8 1 1.1 1 .2 0 .4-.5.4-1 0-.6-.5-1-1.1-1-.5 0-.7.4-.4 1zM1017.5 1985c.3.5.8 1 1.1 1 .2 0 .4-.5.4-1 0-.6-.5-1-1.1-1-.5 0-.7.4-.4 1zM1158 1984.4c0 .2.7.6 1.5 1 .8.3 1.5.1 1.5-.4 0-.6-.7-1-1.5-1s-1.5.2-1.5.4zM1168.6 1985.3c.3 1 .9 1.5 1.2 1.2.3-.3 0-1.1-.7-1.8-1-.9-1.1-.8-.5.6zM940 1987c0 .5.5 1 1.1 1 .5 0 .7-.5.4-1-.3-.6-.8-1-1.1-1-.2 0-.4.4-.4 1zM1173 1987c-.9.6-1 1-.3 1 .6 0 1.5-.5 1.8-1 .8-1.2.4-1.2-1.5 0zM962 1987.8c0 1.2-4.7 3.7-6.3 3.3-.5-.1-.6.2-.4.6.3.5-.6.9-1.9.9-1.3.1-2.2-.2-1.9-.6.3-.4-.2-1-1-1.4-.8-.3-1.5-.1-1.5.5 0 .7-1.2.9-2.9.7-2.2-.3-2.8-.1-2.3 1.1.3.9.1 1.2-.6.7-.7-.4-1.2-.3-1.2.3 0 1.7 1.8 2.2 2.4.6.6-1.7 5.6-2.1 5.6-.4 0 .5.5.7 1.1.3.6-.3 1.4-.3 1.8.2.3.5 1.6 1.4 2.8 2.1 1.8 1 2.2.9 2.8-.5.3-.9.9-1.2 1.3-.7.4.6 2 2.1 3.7 3.5 1.6 1.4 2.3 1.7 1.6.8-.7-1-1-2.5-.7-3.4.5-1.3.9-1.4 2.2-.4 1.2 1.1 1.7 1.1 2.7 0 .9-1 .9-1.2-.3-.8-.8.2-2.3-.4-3.4-1.3-1.7-1.6-1.7-2.1-.5-3.6.8-.9.9-1.4.2-1-.7.4-1.6 0-2.2-1-.6-1-1.1-1.3-1.1-.5zm-.3 5.5c.6-.2 1.4.1 1.8.6.4.7 0 .8-1.1.4-1.3-.5-1.5-.3-.9.8s.5 1.2-.5.2c-1-.9-1.7-1-2.7-.2-1 .9-1.3.7-1.3-1s.3-2 1.8-1.3c.9.5 2.2.7 2.9.5zM944.4 1989.2c-.3.4.5.5 1.7.3 3-.6 3.6-1.4.9-1.2-1.2.1-2.4.5-2.6.9zM937.4 1989.9c.3.5 1.5.7 2.6.4 2.8-.7 2.5-1.3-.6-1.3-1.4 0-2.3.4-2 .9zM884 1991.5c-.9 1.1-1.7 1.2-3.2.4-2.1-1.1-3.4-.7-2.4.9.3.5 1.3.8 2.4.7 2-.1 7.3-3.5 5.5-3.5-.6 0-1.6.7-2.3 1.5zM888 1990.9c0 .5.7 1.1 1.5 1.5.8.3 1.5 1 1.5 1.6 0 .6-.3.9-.7.7-.5-.3-1.4.2-2.1.9-1.3 1.5-.9 1.5 4.3.4.6-.1 1.8-.2 2.7-.1 1.7.1 1.7.2.1 2.1-2.1 2.5-3.5 2.6-2.6.2.6-1.5.4-1.5-1.5.2-2.6 2.3-2.8 3-.6 2.2 1-.4 1.4-.1 1.1.6-.2.7-1.3 1.2-2.3 1-1.5-.2-1.6-.1-.4.7.8.5 1.8.7 2.2.5.4-.3.8 0 .8.6s.4.9 1 .5c.5-.3.6-1.3.3-2.3-.5-1.4-.3-1.5.8-.5.7.7 2.1 1.3 3 1.3.9 0 1.9.6 2.2 1.4.4 1-.1 1.3-1.6 1-1.2-.2-1.6-.1-.9.2 1 .4 1 .9.1 2s-.5 1.3 2.1.9c2.4-.3 2.9-.1 2.1.8-.6.8-.6 1.8-.1 2.7.8 1.3 1 1.2 1-.3 0-1.6.2-1.6 2.5-.1 1.4.9 2.7 1.5 2.9 1.3 3.1-4.1 3.4-5.1 1.8-6.9-.8-1.1-1.9-1.7-2.4-1.4-.5.3-.8.2-.7-.3.3-1.8-.1-3.6-.7-3-.4.4-1.5-.3-2.5-1.5-1.6-1.8-1.9-1.9-1.9-.4 0 .9-.4 1.5-.9 1.2-.5-.3-.7-1.4-.4-2.5.3-1.2-.2-2-1.6-2.4-1.5-.4-1.9-1-1.4-2.2.6-1.6.4-1.6-2.1 0-2 1.4-2.5 1.4-2.1.3.4-.9-.4-1.9-2-2.6-1.4-.6-2.5-.8-2.5-.3zm8.5 10.1c.3.5.1 1-.4 1-.6 0-1.1-.5-1.1-1 0-.6.2-1 .4-1 .3 0 .8.4 1.1 1zM918 1990.8c0 .2.6 1 1.4 1.7 1.2 1.2 1.5 1.2 1.9-.5.3-1.4 0-1.8-1.4-1.7-1.1.1-1.9.3-1.9.5zM983.5 1991.8c.2 1 .4 2.1.5 2.7 0 .5.8.1 1.8-1 2-2.4 4.2-2.6 6-.5 1.1 1.3 1.2 1.2.4-.4-1.3-2.6-9.2-3.3-8.7-.8zM1048.4 1991.4c-1.1.8-1.5 1.8-1 2.3.5.4 1.1.2 1.3-.5.3-.6.8-1 1.2-.8.4.3.8-.1.8-.9 0-1.8.1-1.8-2.3-.1zM929.3 1991.7c.9.2 1.5.9 1.1 1.4-.3.5-1.1.7-1.7.3-.7-.3-.1.4 1.2 1.5 1.3 1.2 2.8 2.1 3.4 2.1.6 0 .3-.6-.8-1.3-1.3-1-1.5-1.6-.6-2.1 1.7-1.1.3-2.6-2.2-2.5-1.7.1-1.8.2-.4.6zM934 1992.9c0 1.1.4 2.3 1 2.6.6.4.7-.1.3-1.1-.4-1.2-.3-1.5.5-1s1 .2.6-.8c-.9-2.2-2.4-2-2.4.3z"/><path d="M965 1992.2c0 .4.4.8.9.8.6 0 1.2-.4 1.5-.8.3-.5-.1-.9-.9-.9s-1.5.4-1.5.9zM922.6 1993.3c.3 1 .9 1.5 1.2 1.2.3-.3 0-1.1-.7-1.8-1-.9-1.1-.8-.5.6zM938.2 1993.5c-.1 1.1.2 2.6.7 3.3.7 1.1.9 1 1.4-.3.4-.9.3-1.3-.2-1-.5.3-1.2-.5-1.4-1.7-.4-2-.4-2-.5-.3zM884.7 1995c-.3 1.1-.1 2 .4 2s.9-.2.9-.4.3-1.1.6-2c.3-.9.2-1.6-.4-1.6-.5 0-1.2.9-1.5 2zM925.6 1993.8c-.3.6-.1 1.4.5 1.7 1.4.9 2 .2 1-1.4-.6-.8-1.1-.9-1.5-.3zM974 1994c0 .5.5 1 1 1 .6 0 1-.5 1-1 0-.6-.4-1-1-1-.5 0-1 .4-1 1zM912.7 1996c.3 1.1.9 2.1 1.4 2.1.5.1 1.4.3 1.9.4.6.1 1.5.3 2.1.4.5 0 .7.5.4 1.1-.3.6.1.7 1 .4 1.2-.5.9-1.2-1.7-3.5-3.9-3.4-5.8-3.7-5.1-.9zm3.3 1c0 .5-.2 1-.4 1-.3 0-.8-.5-1.1-1-.3-.6-.1-1 .4-1 .6 0 1.1.4 1.1 1zM945 1996c0 .5.5 1 1 1 .6 0 1-.5 1-1 0-.6-.4-1-1-1-.5 0-1 .4-1 1zM926 1998.4c0 1.8 2 2.5 4.4 1.6 1.3-.4 1.6-.9.9-1.3-.7-.4-1.4-.3-1.8.3-.4.6-1.1.8-1.6.4-.5-.3-.7-1-.4-1.5.4-.5.1-.9-.4-.9-.6 0-1.1.6-1.1 1.4zM941.6 1997.7c.5.5 1.2 1.2 1.6 1.8.4.6.8.2.8-.8 0-.9-.7-1.7-1.7-1.7-.9 0-1.2.3-.7.7zM939.7 2000.4c-.4 1-.1 1.3.9.9.7-.3 1.4-.9 1.4-1.4 0-1.4-1.7-1-2.3.5zM916 2000.9c0 .6.4 1.3 1 1.6.6.3.7-.1.4-.9-.7-1.8-1.4-2.1-1.4-.7zM1185.1 2000.7c.4 2.4-.3 3.5-1.7 2.9-.9-.3-1.2-.2-.9.5.9 1.3-2.7.8-3.8-.6-.6-.7-1-.6-1.3.2-.3.7-1.3.9-2.2.5-1.6-.5-1.6-.5 0 1.1 1.8 1.9 3.3 2.3 2.3.7-.3-.6-.2-1 .2-1 .5 0 1.4 1.2 1.9 2.7l1.1 2.8 1.3-2.7c.7-1.5 1.7-2.5 2.2-2.2.5.3.2 1.6-.6 2.9-.9 1.3-1.2 2.6-.7 2.9.4.3 1.3-.6 2-2 .6-1.4 1.6-2.2 2.2-1.8.7.4.7-.1-.1-1.6-.9-1.6-.9-2.5-.1-3.3 1.5-1.5 1.4-2.7-.4-2.7-.8 0-1.4.3-1.4.7zM924.7 2002.4c-.4 1 .1 1.2 1.4.9 2.3-.6 2.4-.9.5-1.6-.8-.3-1.7 0-1.9.7zM1172.4 2002.2c-.3.4.6.8 2 .8s2.6-.4 2.6-.9c0-1.1-3.9-1-4.6.1zM918.5 2005c-.3.5-.1 1 .4 1 .6 0 1.1-.5 1.1-1 0-.6-.2-1-.4-1-.3 0-.8.4-1.1 1zM928 2005.1c0 .5.5.7 1 .4.6-.3 1-.8 1-1.1 0-.2-.4-.4-1-.4-.5 0-1 .5-1 1.1zM957.3 2005.5c0 .8.4 1.5.9 1.5.4 0 .8-.7.8-1.5s-.4-1.5-.8-1.5c-.5 0-.9.7-.9 1.5zM960.5 2005c.3.5.8 1 1.1 1 .2 0 .4-.5.4-1 0-.6-.5-1-1.1-1-.5 0-.7.4-.4 1zM893.6 2006.7c-.6 1.4-.5 1.5.5.6.7-.7 1-1.5.7-1.8-.3-.3-.9.2-1.2 1.2zM931.5 2006c.3.5.8 1 1.1 1 .2 0 .4-.5.4-1 0-.6-.5-1-1.1-1-.5 0-.7.4-.4 1zM946.6 2006.2c.3.5 1 .6 1.5.3 1.3-.9 1.1-1.2-.6-1.2-.8 0-1.2.4-.9.9zM1154.2 2009c-1.8 2.9-1.5 3.8.4 1.2.9-1.3 1.4-2.5 1.2-2.7-.2-.2-.9.5-1.6 1.5zM953.5 2010c.3.5.8 1 1.1 1 .2 0 .4-.5.4-1 0-.6-.5-1-1.1-1-.5 0-.7.4-.4 1zM896 2011.2c0 .4.4.8.9.8.6 0 1.2-.4 1.5-.8.3-.5-.1-.9-.9-.9s-1.5.4-1.5.9zM910.6 2010.8c-.3.5.1.9.9.9s1.5-.4 1.5-.9c0-.4-.4-.8-.9-.8-.6 0-1.2.4-1.5.8zM942.5 2012c.3.5.8 1 1.1 1 .2 0 .4-.5.4-1 0-.6-.5-1-1.1-1-.5 0-.7.4-.4 1zM951.1 2013.9c.6 1.8 6.6 5.3 7.3 4.3.3-.6-.2-1.6-1.1-2.3-1.2-1-1.4-1-.9-.2 1.2 2-.8 1.5-3.4-.9-1.2-1.2-2.1-1.6-1.9-.9zM947.5 2016c-.3.6.1.7.9.4 1.8-.7 2.1-1.4.7-1.4-.6 0-1.3.4-1.6 1zM951 2018c0 .5.5 1 1 1 .6 0 1-.5 1-1 0-.6-.4-1-1-1-.5 0-1 .4-1 1zM1138.6 2021.3c.3 1 .9 1.5 1.2 1.2.3-.3 0-1.1-.7-1.8-1-.9-1.1-.8-.5.6zM951 2027.9c0 .5.7 1.4 1.5 2.1 1.6 1.4 1.8 1 .9-1.4-.6-1.7-2.4-2.2-2.4-.7zM1137.6 2031.8c-.2.4 0 1.4.6 2.2.8 1.2.9 1.1.4-.4-.5-1.4-.2-1.7.9-1.2.9.3 1.3.2 1-.4-.7-1.2-2.2-1.3-2.9-.2zM949 2032.9c0 .9 3.1 3.1 4.3 3.1.3 0 .8-.7 1.1-1.6.5-1.4.4-1.5-.8-.5-1.1.9-1.7.8-3-.4-.9-.9-1.6-1.2-1.6-.6zM956.5 2034.4c-1.8 1.3-1.8 1.4.1 2.4 2.2 1.2 4.9 1.1 6.1-.3.4-.4.3-.5-.4-.1-.7.3-1.4-.2-1.8-1.4-.7-2.4-1.5-2.5-4-.6zM980.5 2034c-.3.5-.1 1 .4 1 .6 0 1.1-.5 1.1-1 0-.6-.2-1-.4-1-.3 0-.8.4-1.1 1zM979.8 2037.2c.6.6.8 1.8.5 2.7-.7 1.7-.5 1.6 1.5-1 1-1.4.9-1.7-.9-2.2-1.6-.4-1.9-.3-1.1.5zM1125.5 2040c.3.5.8 1 1.1 1 .2 0 .4-.5.4-1 0-.6-.5-1-1.1-1-.5 0-.7.4-.4 1zM981.2 2041.6c-.7.8-.8 1.4-.3 1.4 1 0 2.5-1.9 2-2.5-.2-.1-1 .3-1.7 1.1zM1115.5 2044c1 1.1 2 2 2.3 2 .3 0-.3-.9-1.3-2s-2-2-2.3-2c-.3 0 .3.9 1.3 2zM974.6 2044.7c-.6 1.4-.5 1.5.5.6.7-.7 1-1.5.7-1.8-.3-.3-.9.2-1.2 1.2zM980 2046c0 1.9.3 2.1 1.2 1.2.9-.9.9-1.5 0-2.4-.9-.9-1.2-.7-1.2 1.2zM1006.6 2045.8c-.2.4.4.8 1.5.8 1 0 1.9-.4 1.9-.8s-.6-.8-1.4-.8c-.8 0-1.7.4-2 .8zM1120.5 2047.1c-1 1.5.3 2.5 1.6 1.2.7-.7.7-1.3.1-1.7-.6-.3-1.4-.1-1.7.5zM1037.1 2047.9c-.7.5-.9 1.1-.5 1.4.5.3 1.5-.1 2.2-.9 1.4-1.6.5-1.8-1.7-.5zM1058.5 2050.9c-.6 1.1 1.3 2.6 2.2 1.7.4-.3.1-.6-.6-.6s-.9-.5-.6-1c.3-.6.4-1 .1-1-.3 0-.7.4-1.1.9zM1003.5 2056c-.3.5-.1 1 .4 1 .6 0 1.1-.5 1.1-1 0-.6-.2-1-.4-1-.3 0-.8.4-1.1 1zM1006 2056c0 .5.5 1 1.1 1 .5 0 .7-.5.4-1-.3-.6-.8-1-1.1-1-.2 0-.4.4-.4 1zM980.6 2061.6c-.5 1.4-.4 1.5.9.4 1.7-1.4 1.9-2 .6-2-.5 0-1.2.7-1.5 1.6zM1076.5 2067c.3.5.8 1 1.1 1 .2 0 .4-.5.4-1 0-.6-.5-1-1.1-1-.5 0-.7.4-.4 1z"/></svg>