<svg aria-hidden="true" style="position:absolute;width:0;height:0" xmlns="http://www.w3.org/2000/svg" overflow="hidden"><defs><symbol id="map-1" viewBox="0 0 32 32"><path fill="var(--color1, #fff)" d="M29.25 19.35c0 6.71-5.44 12.15-12.15 12.15S4.95 26.06 4.95 19.35 10.39 7.2 17.1 7.2s12.15 5.44 12.15 12.15z"/><path fill="var(--color2, #193651)" d="M17.1 32c-3.4 0-6.55-1.3-8.95-3.7s-3.7-5.55-3.7-8.95C4.45 12.4 10.1 6.7 17.1 6.7c3.4 0 6.55 1.3 8.95 3.7s3.7 5.55 3.7 8.95c0 7-5.7 12.65-12.65 12.65zm0-24.3c-6.4 0-11.65 5.2-11.65 11.65 0 3.1 1.2 6.05 3.4 8.25s5.1 3.4 8.25 3.4c6.4 0 11.65-5.2 11.65-11.65 0-3.1-1.2-6.05-3.4-8.25-2.25-2.2-5.15-3.4-8.25-3.4z"/><path fill="var(--color3, #e1e6e9)" d="M27.33 19.337c0 5.661-4.589 10.25-10.25 10.25S6.83 24.998 6.83 19.337s4.589-10.25 10.25-10.25 10.25 4.589 10.25 10.25z"/><path fill="var(--color4, #2ea2db)" d="M18.1 21.1s.3-.5-1.4-.55c0 0-.4.25-.5-1h-.5s-.35-.95-.8-.55c0 0-.3.35-.7-.3 0 0-1.1-.3-1.2 1.25 0 0-1.45.95.3 2.25l.8.65-.05 1.55s.4.05.2.7c0 0 .55.5.1 1.5 0 0 .55 1.55 1.55 1.05l-.3-.35.15-.65h-.5l.35-.7-.3-.25s1.75-.05 1.75-1.55c0 0-.75-.75.5-.6 0 0 .6 0 .55-1.4 0 0 .55-.5.45-.8-.05-.2-.45-.25-.45-.25zm8.4-5.85c-.95.1-.65 1.35-.65 1.35-.4.8-1.45-.45-1.45-.45-.4.9-1.4-.05-1.4-.05-2.35-1.25-2.75.95-2.75.95-1.2 1.15-.05 2.75-.05 2.75.7 1 1.75-.3 1.75-.3.7.85 1.15.65 1.15.65l-.1.5c-.1.5.75 1.1.75 1.4 0 .25-1.2.9-.3 1.7s.5 1.35.5 1.35.65.6 1 .9c1.5-1.75 2.45-4 2.45-6.5-.05-1.5-.35-2.9-.9-4.25zM9.4 17.3l.5 1.1c.5 1.05 1.25-.2 1.05-.7-.2-.55.25-1.35 1.5-1.05s.7-.2 1.8-1.55S16 14.85 16.3 14c.35-.8.6-2.35-.65-1.4-1.25.9-1.15.5 0-.9s-.75.25-2.7.15c-.85-.05-1.15-.6-1.2-1.25-1 .6-1.9 1.4-2.65 2.3-.2.6-.35 1.3-.65 2.35-.4 1.7.95 2.05.95 2.05z"/><path fill="var(--color1, #fff)" d="M20.2 6.15c0 3.1 5.65 9.45 5.65 9.45s5.65-6.3 5.65-9.45c0-3.1-2.55-5.65-5.65-5.65-3.15 0-5.65 2.55-5.65 5.65z"/><path fill="var(--color2, #193651)" d="M25.85 16.1c-.15 0-.3-.05-.35-.15-.25-.25-5.8-6.5-5.8-9.75 0-3.45 2.75-6.2 6.15-6.2S32 2.75 32 6.15c0 3.3-5.55 9.5-5.8 9.75-.1.1-.2.2-.35.2zm0-15.1C23 1 20.7 3.3 20.7 6.15c0 2.25 3.45 6.65 5.15 8.65C27.6 12.8 31 8.35 31 6.15 31 3.3 28.7 1 25.85 1z"/><path fill="var(--color5, #f16051)" d="M29.05 6.1a3.2 3.2 0 11-6.4 0 3.2 3.2 0 016.4 0z"/><path fill="var(--color1, #fff)" d="M.5 24.55c0 2.3 4.15 6.95 4.15 6.95s4.15-4.65 4.15-6.95-1.85-4.15-4.15-4.15S.5 22.25.5 24.55z"/><path fill="var(--color2, #193651)" d="M4.65 32c-.15 0-.3-.05-.35-.15-.45-.5-4.3-4.9-4.3-7.3 0-2.6 2.1-4.65 4.65-4.65S9.3 22 9.3 24.55c0 2.45-3.85 6.8-4.3 7.3-.05.1-.2.15-.35.15zm0-11.15c-2 0-3.65 1.65-3.65 3.7 0 1.55 2.4 4.7 3.65 6.2 1.3-1.5 3.65-4.65 3.65-6.2.05-2.05-1.6-3.7-3.65-3.7z"/><path fill="var(--color5, #f16051)" d="M6.7 24.5a2.05 2.05 0 11-4.1 0 2.05 2.05 0 014.1 0z"/><path fill="var(--color2, #193651)" d="M1.45 19.35h-1v-.5l1 .05v.45zm.05-1.4l-1-.1c.05-.35.05-.65.1-1l1 .15c-.05.3-.05.6-.1.95zm.3-1.9l-1-.2c.05-.35.15-.65.25-.95l.95.25c-.05.3-.15.6-.2.9zm.5-1.8l-.95-.35c.1-.3.25-.65.35-.95l.9.4-.3.9zM3 12.5l-.9-.45.45-.9.85.5c-.1.3-.25.55-.4.85zm.95-1.65l-.85-.55c.2-.25.4-.55.6-.8l.8.6c-.2.25-.4.5-.55.75zm1.1-1.5L4.3 8.7c.2-.25.45-.5.65-.75l.75.7c-.2.2-.45.45-.65.7zm1.3-1.4l-.7-.75c.25-.25.5-.45.75-.65l.65.75c-.2.25-.45.45-.7.65zm1.45-1.2l-.6-.8c.25-.2.55-.4.8-.55l.55.85c-.25.15-.5.3-.75.5zm1.6-1l-.5-.85.9-.45.45.9c-.3.1-.6.25-.85.4zm1.7-.85l-.4-.9c.3-.15.6-.25.95-.35l.35.95c-.35.05-.65.2-.9.3zm1.75-.6l-.25-.95c.3-.1.65-.15.95-.25l.2 1c-.3.05-.6.1-.9.2zm1.85-.4l-.15-1c.35-.05.65-.1 1-.1l.1 1c-.3 0-.65.05-.95.1zm1.9-.2l-.05-1h.5v1h-.45z"/></symbol><symbol id="map-2" viewBox="0 0 32 32"><path fill="var(--color6, #46b29d)" d="M32 11.586V32l-11.035-2.207L10.482 32-.001 29.793V9.379l10.483 2.207.552-.116.651-.138 10.819-1.644z"/><path fill="var(--color7, #f9eab0)" d="M21.517 15.134v10.819c6.152.303 9.655-1.903 10.483-2.499v1.33c-1.423.866-4.519 2.312-9.308 2.312-.375 0-.772-.011-1.175-.033v2.841l-.552-.11-.552.116v-2.924c-4.899-.491-6.052-2.67-7.371-5.186a18.89 18.89 0 00-2.04-3.293l.032.043v8.353a16.932 16.932 0 013.073 4.23l.044.095-1.12.237a16.734 16.734 0 00-2.017-2.981l.02.024v3.377l-.552.116-.552-.116v-4.502c-3.327-2.974-7.779-4.485-9.931-5.087v-1.142c1.97.524 6.378 1.942 9.931 4.789v-8.601c-3.553-3.321-8.822-.96-9.931-.403V15.72c1.749-.783 6.339-2.395 9.931.199v-4.447l.552.116.552-.116v5.412a17.627 17.627 0 012.944 4.298l.046.105c1.247 2.395 2.174 4.143 6.389 4.59V10.396a.568.568 0 01.192-.419l.001-.001a.55.55 0 01.577-.086l-.004-.001h.006a.562.562 0 01.331.507v2.72a11.835 11.835 0 0010.483 6.19v1.103a13.09 13.09 0 01-10.459-5.241l-.024-.034z"/><path fill="var(--color8, #cc4b4c)" d="M23.441 6.326c0 2.853-4.482 10.261-6.125 12.678a.729.729 0 01-1.188.003l-.002-.002c-1.643-2.417-6.125-9.825-6.125-12.678 0-3.494 3.008-6.326 6.72-6.326s6.72 2.832 6.72 6.326z"/><path fill="var(--color9, #e6e7e8)" d="M19.481 6.396a2.759 2.759 0 11-5.517 0 2.759 2.759 0 015.517 0z"/></symbol><symbol id="mobile" viewBox="0 0 32 32"><path fill="var(--color10, #f8ec7d)" d="M22.375 3.868v21.216c0 .453-.366.82-.819.82H10.497a.819.819 0 01-.82-.819V3.868a.82.82 0 01.82-.821h11.057a.82.82 0 01.82.821z"/><path fill="var(--color11, #e48e66)" d="M25.487 2.012v27.976c0 1.111-.927 2.012-2.07 2.012H8.633c-1.143 0-2.069-.901-2.069-2.012V2.012C6.564.901 7.49 0 8.633 0h14.784c1.143 0 2.07.901 2.07 2.012zm-3.112 23.072V3.868a.821.821 0 00-.82-.821H10.498a.82.82 0 00-.821.821v21.216c0 .453.366.82.819.82h11.059c.453 0 .82-.366.82-.819z"/><path fill="var(--color12, #e2d574)" d="M15.47 3.047h-4.973a.82.82 0 00-.82.821v21.216c0 .453.366.82.819.82h4.975z"/><path fill="var(--color13, #d18162)" d="M15.47 25.904h-4.973a.819.819 0 01-.82-.819V3.868a.82.82 0 01.82-.821h4.973V0H8.633C7.49 0 6.564.901 6.564 2.012v27.976c0 1.111.926 2.012 2.069 2.012h6.836z"/><path fill="var(--color10, #f8ec7d)" d="M16.025 30.887a1.933 1.933 0 01.043-3.868 1.935 1.935 0 01-.01 3.868h-.034.002zm0-2.227a.295.295 0 00.034.588h.007a.294.294 0 00.284-.294.311.311 0 00-.31-.293h-.015.001z"/></symbol></defs></svg>