<svg aria-hidden="true" style="position:absolute;width:0;height:0" xmlns="http://www.w3.org/2000/svg" overflow="hidden"><defs><symbol id="cocktail" viewBox="0 0 32 32"><path fill="var(--color1, #f29c1f)" d="M25.931 1.126A6.069 6.069 0 1032 7.195v-.004a6.05 6.05 0 00-1.776-4.289 6.043 6.043 0 00-4.288-1.776h-.004zm2.731 8.8a3.862 3.862 0 111.131-2.731v.013a3.816 3.816 0 01-1.131 2.717z"/><path fill="var(--color2, #f0c419)" d="M28.662 4.464l-2.731 2.731V3.333h.014c1.062 0 2.023.432 2.717 1.131z"/><path fill="var(--color3, #f3d55b)" d="M29.793 7.195h-3.862l2.731-2.731a3.816 3.816 0 011.131 2.717v.014-.001z"/><path fill="var(--color2, #f0c419)" d="M29.793 7.195v.013a3.816 3.816 0 01-1.131 2.717l-2.731-2.731z"/><path fill="var(--color3, #f3d55b)" d="M28.662 9.926a3.816 3.816 0 01-2.717 1.131h-.014.001V7.195z"/><path fill="var(--color2, #f0c419)" d="M28.69 4.437l-.028.028zm0 5.517l-.028-.028zm-2.759-2.759h-3.862v-.014c0-1.062.432-2.023 1.131-2.717zm0 0v3.862h-.014A3.816 3.816 0 0123.2 9.926z"/><path fill="var(--color3, #f3d55b)" d="M25.931 7.195L23.2 9.926a3.82 3.82 0 01-1.131-2.717v-.015.001zm0-3.862v3.862L23.2 4.464a3.817 3.817 0 012.718-1.131h.014-.001z"/><path fill="var(--color2, #f0c419)" d="M23.2 4.464l-.028-.028zm0 5.462l-.028.027z"/><path fill="var(--color4, #90bae1)" d="M13.794 16.392v11.216l4.313 2.27a.552.552 0 01.278.624l.001-.004a.553.553 0 01-.536.419H7.454a.552.552 0 01-.256-1.04l.003-.001 4.386-2.269V16.424z"/><path fill="var(--color5, #ff5364)" d="M12.635 7.195H.556a.552.552 0 00-.473.267l-.001.002a.548.548 0 00-.013.549L.068 8.01a14.691 14.691 0 003.175 4.032l.015.013a4.522 4.522 0 001.692.944l.032.008 1.951.582c.529.159.99.394 1.398.698l-.012-.008 2.134 1.591a3.73 3.73 0 004.367 0l2.136-1.591a4.387 4.387 0 011.354-.681l.031-.008 1.951-.581a4.533 4.533 0 001.73-.956l-.005.004a14.68 14.68 0 003.15-3.968l.038-.077a.544.544 0 00-.016-.548l.001.002a.555.555 0 00-.475-.269z"/><path fill="var(--color4, #90bae1)" d="M25.203 8.012a13.21 13.21 0 01-.878 1.433l.028-.042H.917a13.05 13.05 0 01-.815-1.319l-.035-.071a.548.548 0 01.011-.549l-.001.003a.552.552 0 01.474-.27H24.712a.556.556 0 01.49.819l.001-.003z"/></symbol><symbol id="tea" viewBox="0 0 32 32"><path fill="var(--color6, #ffa733)" d="M29.816 7.563v.009a6.52 6.52 0 01-1.917 4.627 6.526 6.526 0 01-4.628 1.917h-10.93v-2.184h10.921a4.369 4.369 0 100-8.738H12.341V1.01h10.921a6.553 6.553 0 016.553 6.553z"/><path fill="var(--color7, #ff9275)" d="M12.341 1.01h2.184v2.184h-2.184z"/><path fill="var(--color8, #ffb655)" d="M23.263.464H12.342a.545.545 0 00-.546.546v2.184c0 .302.245.546.546.546h10.921a3.822 3.822 0 110 7.645h-7.645v1.092h7.645a4.916 4.916 0 000-9.83h-8.191V1.555h8.191a6.006 6.006 0 011.733 11.758l.313 1.046A7.099 7.099 0 0023.263.462zm-9.284 2.185h-1.092V1.557h1.092z"/><path fill="var(--color7, #ff9275)" d="M1.42 29.406H32v2.184H1.42z"/><path fill="var(--color9, #ffe477)" d="M32 24.492v4.915H1.42v-4.915a13.12 13.12 0 016.629-11.391l.47.47H26.13A13.111 13.111 0 0132 24.492z"/><path fill="var(--color7, #ff9275)" d="M26.13 13.57a12.9 12.9 0 00-7.217-2.184H14.505c-2.375 0-4.602.636-6.519 1.748l.062-.033.47.47z"/><path fill="var(--color10, #f7941d)" d="M17.256 10.294a1.092 1.092 0 11-2.184 0 1.092 1.092 0 012.184 0z"/><path fill="var(--color11, #fcc470)" d="M8.049 13.1l-2.3-2.3-3.861 3.861 2.075 2.075a13.212 13.212 0 014.022-3.603l.063-.034z"/><path fill="var(--color10, #f7941d)" d="M.344 13.117l3.861-3.86 1.545 1.545-3.861 3.86z"/><path fill="var(--color12, #ff7956)" d="M0 9.202h1.092v-.015c0-.222.086-.425.226-.576v.001a1.97 1.97 0 000-2.457c-.14-.157-.225-.364-.225-.592s.085-.435.226-.593l-.001.001c.268-.326.431-.747.431-1.207V3.74v.001H.657v.016a.846.846 0 01-.226.576l.001-.001a1.97 1.97 0 000 2.457c.14.151.225.354.225.577v.018-.001.017a.84.84 0 01-.226.574c-.268.327-.43.749-.43 1.209v.021-.001zm2.73-1.093h1.092v-.015c0-.222.086-.425.226-.576v.001a1.968 1.968 0 000-2.457c-.14-.157-.225-.364-.225-.592s.085-.435.226-.593l-.001.001c.268-.326.431-.748.431-1.207v-.024.001H3.387v.016a.846.846 0 01-.226.576l.001-.001a1.97 1.97 0 000 2.457c.14.151.225.354.225.577v.018-.001.017a.84.84 0 01-.226.574c-.268.327-.43.749-.43 1.209v.021-.001z"/><path fill="var(--color13, #ffd422)" d="M26.539 26.676h1.092v1.092h-1.092zm2.184 0h3.276v1.092h-3.276zm-1.092-1.638H32v1.092h-4.369z"/><path fill="var(--color14, #ffde55)" d="M32 24.492v4.915H17.191c4.347-2.179 8.797-6.012 12.319-12.592A12.92 12.92 0 0132 24.472v.022-.001z"/><path fill="var(--color12, #ff7956)" d="M32 29.406v2.184H10.829a25.209 25.209 0 006.505-2.251l-.144.066z"/></symbol><symbol id="hookah" viewBox="0 0 32 32"><path fill="var(--color15, #e6e6e6)" d="M8.981 19.009a4.08 4.08 0 01-2.299-.683c-2.005-1.343-1.818-3.82-1.81-3.925.132-1.548 1.113-2.61 1.529-2.995 1.653-1.53 3.686-1.234 6.039-.891 2.233.325 4.763.693 7.747-.297 1.085-.36 3.106-1.03 4.53-2.957 1.422-1.924 1.585-4.134 1.47-5.649a.537.537 0 01.492-.575h.002a.537.537 0 01.576.492v.002c.105 1.389.027 4.063-1.677 6.368-1.627 2.2-3.942 2.968-5.055 3.338-3.225 1.07-6.005.665-8.239.34-2.252-.328-3.879-.564-5.156.617-.324.3-1.089 1.125-1.189 2.298-.002.019-.147 1.947 1.338 2.942 1.154.773 2.445.437 2.693.362a.535.535 0 11.316 1.025l-.004.001a4.577 4.577 0 01-1.303.187z"/><path fill="var(--color16, #ffdb6c)" d="M13.862 9.067a.537.537 0 01-.537-.537V6.801a.537.537 0 011.073.001v1.729c0 .296-.24.537-.537.537z"/><path fill="var(--color17, #634e9b)" d="M21.064 29.568H6.701a1.989 1.989 0 00-1.989 1.989c0 .244.199.443.443.443h17.456a.444.444 0 00.443-.443 1.989 1.989 0 00-1.989-1.989z"/><path fill="var(--color16, #ffdb6c)" d="M9.258 29.568a5.916 5.916 0 118.874 0z"/><path fill="var(--color18, #ffb04c)" d="M13.694 19.739h-.003c-.42 0-.83.044-1.225.126l.039-.007a5.918 5.918 0 013.247 9.709h2.379a5.916 5.916 0 00-4.437-9.829z"/><path fill="var(--color19, #6eaecd)" d="M16.208 19.739h-4.649a1.43 1.43 0 110-2.862h4.649a1.43 1.43 0 110 2.862z"/><path fill="var(--color20, #5388b4)" d="M16.207 16.878h-1.764a1.43 1.43 0 110 2.862h1.764a1.43 1.43 0 100-2.862z"/><path fill="var(--color17, #634e9b)" d="M17.263 6.801h-6.76c-.79 0-1.431-.641-1.431-1.431v-.272a.3.3 0 01.3-.3h9.021a.3.3 0 01.3.3v.272c0 .79-.641 1.431-1.431 1.431z"/><path fill="var(--color21, #4c3a7a)" d="M16.863 4.798v.572c0 .79-.64 1.431-1.431 1.431h1.83c.79 0 1.431-.641 1.431-1.431v-.272a.3.3 0 00-.3-.3h-1.53z"/><path fill="var(--color22, #ee3446)" d="M11.486 16.878a2.396 2.396 0 014.792 0z"/><path fill="var(--color23, #ba2c53)" d="M13.883 14.482c-.257 0-.505.041-.738.116a2.398 2.398 0 011.659 2.28h1.475a2.396 2.396 0 00-2.396-2.396z"/><path fill="var(--color24, #42a555)" d="M15.354 12.989a1.493 1.493 0 11-2.986 0 1.493 1.493 0 012.986 0z"/><path fill="var(--color24, #42a555)" d="M15.387 10.004a1.493 1.493 0 11-2.986 0 1.493 1.493 0 012.986 0z"/><path fill="var(--color25, #427451)" d="M13.862 11.496c-.208 0-.406.043-.586.12a1.494 1.494 0 010 2.746c.172.076.373.12.584.12h.002a1.493 1.493 0 000-2.986z"/><path fill="var(--color25, #427451)" d="M13.894 8.511c-.208 0-.406.043-.586.12a1.494 1.494 0 010 2.746c.172.076.373.12.584.12h.002a1.493 1.493 0 000-2.986z"/><path fill="var(--color16, #ffdb6c)" d="M15.354 4.798h-2.986L10.895.659a.494.494 0 01.466-.66h4.81c.333 0 .571.323.472.641l-1.289 4.158z"/><path fill="var(--color18, #ffb04c)" d="M15.253 0l-1.488 4.798h1.589L16.643.64a.494.494 0 00-.472-.64h-.918z"/><path fill="var(--color21, #4c3a7a)" d="M21.064 29.568h-2.95c1.091 0 1.975.884 1.975 1.975V32h2.521a.443.443 0 00.443-.443 1.989 1.989 0 00-1.989-1.989z"/></symbol></defs></svg>