<svg aria-hidden="true" style="position:absolute;width:0;height:0" xmlns="http://www.w3.org/2000/svg" overflow="hidden"><defs><symbol id="tea" viewBox="0 0 32 32"><path d="M31.375 12.906H26.25v-1.323a.625.625 0 00-.625-.625h-13.5a.625.625 0 000 1.25H25V17c0 4.209-2.247 8.121-5.876 10.25H7.126A11.908 11.908 0 011.25 17v-4.792h4.188a.625.625 0 000-1.25H.625a.625.625 0 00-.625.625V17a13.111 13.111 0 004.928 10.25H.624a.625.625 0 00-.625.625A4.13 4.13 0 004.124 32h19.5a4.13 4.13 0 004.125-4.125.625.625 0 00-.625-.625H21.32a13.308 13.308 0 002.862-3.177l.032-.052h1.764A6.028 6.028 0 0031.999 18v-4.469a.625.625 0 00-.625-.625zM26.432 28.5a2.88 2.88 0 01-2.807 2.25h-19.5a2.88 2.88 0 01-2.807-2.25h25.113zM26.25 17v-.344h2V18a2.274 2.274 0 01-2.271 2.271h-.142c.262-.981.413-2.108.413-3.27V17zm4.5 1a4.776 4.776 0 01-4.771 4.771h-1.064c.166-.325.345-.737.504-1.16l.03-.09h.53A3.525 3.525 0 0029.5 18v-1.969a.625.625 0 00-.625-.625H26.25v-1.25h4.5V18zM13.722 3.459l-.325-.408a1.63 1.63 0 01-.002-2.037.625.625 0 10-.979-.777 2.874 2.874 0 00.003 3.593l.325.408c.624.783.625 1.878.002 2.662l-.333.42a.625.625 0 00.489 1.014h.001a.622.622 0 00.488-.235l.001-.001.333-.42a3.373 3.373 0 00-.004-4.218zm3.464 1.405l-.325-.408a1.63 1.63 0 01-.002-2.037.625.625 0 10-.979-.777 2.874 2.874 0 00.003 3.593l.325.408c.624.783.625 1.878.002 2.662l-.333.42a.625.625 0 00.489 1.013h.002a.622.622 0 00.488-.235l.001-.001.333-.42a3.374 3.374 0 00-.003-4.218zm-6.928 0l-.325-.408a1.63 1.63 0 01-.002-2.037.625.625 0 10-.979-.777 2.874 2.874 0 00.003 3.593l.325.408c.624.783.625 1.878.002 2.662l-.333.42a.625.625 0 00.489 1.014h.001a.622.622 0 00.488-.235l.001-.001.333-.42a3.373 3.373 0 00-.004-4.218z"/><path d="M9.393 11.141a.63.63 0 00-.884 0c-.116.117-.183.277-.183.442s.067.326.183.443a.628.628 0 00.884 0 .627.627 0 000-.884zm13.232 5.234A.625.625 0 0022 17c0 2.32-.941 4.6-2.582 6.255a.625.625 0 00.443 1.065h.002c.173 0 .33-.071.443-.185A10.212 10.212 0 0023.25 17a.625.625 0 00-.625-.625zm-4.257 8.577a.624.624 0 00-.851-.237l-.014.008a.624.624 0 10.617 1.087l-.003.002.014-.008a.624.624 0 00.237-.851z"/></symbol><symbol id="cocktail" viewBox="0 0 32 32"><path d="M27.462 0a4.108 4.108 0 00-4.02 3.282h4.02a.82.82 0 01.821.82v2.462a6.521 6.521 0 01-.21 1.623l.01-.045A4.094 4.094 0 0027.461 0z"/><path d="M.385 6.564c.001.331.034.653.096.965l-.005-.032H26.55c.057-.28.09-.603.091-.933V4.923H.385zm4.923 4.923h.164a.82.82 0 01.804.657A7.409 7.409 0 0012.692 18v12.359H5.307V32h16.41v-1.641h-7.385V18a7.41 7.41 0 006.416-5.856.823.823 0 01.804-.657h.164a4.915 4.915 0 004.173-2.327l.012-.021H1.122a4.92 4.92 0 004.184 2.348z"/></symbol><symbol id="hookah" viewBox="0 0 32 32"><path d="M27.298 2.026a.526.526 0 00-1.05.046l.001.035v-.002c.112 1.485-.047 3.652-1.441 5.538-1.396 1.889-3.377 2.546-4.441 2.899-1.576.523-3.022.659-4.364.624.116-.244.184-.53.184-.832v-.001c0-.926-.637-1.707-1.495-1.927V7.72H17.5a1.93 1.93 0 001.928-1.928v-.561a.526.526 0 00-.526-.526h-2.559l1.052-3.394c.096-.31.041-.637-.152-.899a1 1 0 00-.813-.411h-2.79a.526.526 0 000 1.052h2.734l-1.132 3.652h-2.168L11.525.351a.526.526 0 10-.99.357l-.001-.004 1.424 4.002H9.472a.526.526 0 00-.526.526v.561a1.93 1.93 0 001.928 1.928h2.767v.704a1.993 1.993 0 00-1.385 2.336c-2.088-.295-3.905-.438-5.402.948-.408.377-1.37 1.419-1.499 2.936-.009.103-.191 2.53 1.774 3.847.783.524 1.594.67 2.254.67.249 0 .493-.02.731-.058l-.026.003c.153.439.459.806.855 1.036a6.321 6.321 0 00-2.329 8.844H7.135a2.465 2.465 0 00-2.462 2.462v.027c0 .29.235.526.526.526h17.98c.29 0 .526-.235.526-.526v-.027a2.465 2.465 0 00-2.462-2.462H9.899a5.233 5.233 0 01-1.168-3.308v-.002c0-2.908 2.366-5.273 5.273-5.273s5.273 2.366 5.273 5.273v.006c0 .577-.093 1.132-.264 1.652l.011-.037a.525.525 0 00.336.66l.004.001a.525.525 0 00.66-.336l.001-.004a6.188 6.188 0 00.304-1.937v-.006a6.33 6.33 0 00-3.091-5.434 1.932 1.932 0 001.159-1.768c0-.868-.576-1.603-1.366-1.845a2.881 2.881 0 00-1.387-2.037 1.98 1.98 0 00.215-2.382c1.469.048 3.088-.089 4.842-.671 1.091-.362 3.361-1.115 4.955-3.272 1.67-2.259 1.747-4.881 1.644-6.242zM9.647 30.037h11.595c.602 0 1.117.379 1.319.912H5.815a1.413 1.413 0 011.319-.912h2.513zm1.227-23.37a.878.878 0 01-.877-.877v-.035h8.379v.035a.878.878 0 01-.877.877h-6.626zm3.194 2.738a.561.561 0 00.223-.005.937.937 0 01.462 1.688 29.505 29.505 0 01-1.271-.153.938.938 0 01.587-1.529zm.099 2.916c.517 0 .938.421.938.938s-.421.938-.938.938c-.517 0-.938-.421-.938-.938s.421-.938.938-.938zm-4.139 5.726c-.504.092-1.449.149-2.315-.431-1.456-.976-1.313-2.865-1.311-2.884.098-1.151.848-1.959 1.165-2.253 1.252-1.158 2.847-.926 5.054-.605l.104.015a1.98 1.98 0 00-.02 2.719 2.883 2.883 0 00-1.36 2.021c-.656.2-1.165.742-1.318 1.418zm6.438-.45a.878.878 0 010 1.754h-4.558a.878.878 0 010-1.754h4.558zm-.533-1.052h-3.491c.226-.75.923-1.297 1.745-1.297s1.519.548 1.745 1.297z"/></symbol></defs></svg>