<svg aria-hidden="true" style="position:absolute;width:0;height:0" xmlns="http://www.w3.org/2000/svg" overflow="hidden"><defs><symbol id="time" viewBox="0 0 32 32"><path fill="var(--color1, #fff)" d="M31.375 8.5v21.625a1.25 1.25 0 01-1.25 1.25H1.875a1.25 1.25 0 01-1.25-1.25V8.5z"/><path fill="var(--color2, #ff5d5d)" d="M30.125 3.125c.691 0 1.25.559 1.25 1.25V8.5H.625V4.375c0-.691.559-1.25 1.25-1.25z"/><path fill="var(--color3, #ffaa24)" d="M16 21c0 1.25-3.75 1.25-3.75 6.25h7.5c0-5-3.75-5-3.75-6.25zm3.75-6.25h-7.5c0 5 3.75 5 3.75 6.25 0-1.25 3.75-1.25 3.75-6.25z"/><path fill="var(--color4, #000)" d="M7.25 10.375a.625.625 0 100 1.25.625.625 0 000-1.25z"/><path fill="var(--color4, #000)" d="M1.875 32h28.25A1.877 1.877 0 0032 30.125V4.375A1.877 1.877 0 0030.125 2.5h-1v-.625C29.125.841 28.284 0 27.25 0s-1.875.841-1.875 1.875V2.5h-3.75v-.625C21.625.841 20.784 0 19.75 0s-1.875.841-1.875 1.875V2.5h-3.75v-.625C14.125.841 13.284 0 12.25 0s-1.875.841-1.875 1.875V2.5h-3.75v-.625C6.625.841 5.784 0 4.75 0S2.875.841 2.875 1.875V2.5h-1A1.877 1.877 0 000 4.375v25.75C0 31.159.841 32 1.875 32zm28.25-1.25H1.875a.625.625 0 01-.625-.625v-21h29.5v21c0 .345-.28.625-.625.625zm-3.5-28.875a.625.625 0 011.25 0V2.5h-1.25zm-7.5 0a.625.625 0 011.25 0V2.5h-1.25zm-7.5 0a.625.625 0 011.25 0V2.5h-1.25zm-7.5 0a.625.625 0 011.25 0V2.5h-1.25zM1.875 3.75h1v.813c0 1.034.841 1.875 1.875 1.875a.625.625 0 000-1.25.625.625 0 01-.625-.625V3.75h6.25v.813c0 1.034.841 1.875 1.875 1.875a.625.625 0 000-1.25.625.625 0 01-.625-.625V3.75h6.25v.813c0 1.034.841 1.875 1.875 1.875a.625.625 0 000-1.25.625.625 0 01-.625-.625V3.75h6.25v.813c0 1.034.841 1.875 1.875 1.875a.625.625 0 000-1.25.625.625 0 01-.625-.625V3.75h3.5c.345 0 .625.28.625.625v3.5H1.25v-3.5c0-.345.28-.625.625-.625z"/><path fill="var(--color4, #000)" d="M24.75 10.375h-15a.625.625 0 000 1.25h15a.625.625 0 000-1.25zm-4.395 5H21a.625.625 0 000-1.25H11a.625.625 0 000 1.25h.645c.275 4.296 3.462 5.04 3.728 5.625-.267.585-3.454 1.329-3.728 5.625H11a.625.625 0 000 1.25h10a.625.625 0 000-1.25h-.645c-.275-4.296-3.462-5.04-3.728-5.625.267-.585 3.454-1.329 3.728-5.625zm-1.253 11.25h-6.203c.229-3.08 2.139-3.692 3.102-4.488.957.791 2.873 1.406 3.102 4.488zM16 19.863c-.957-.791-2.873-1.406-3.102-4.488h6.203c-.229 3.08-2.139 3.693-3.102 4.488z"/></symbol></defs></svg>