<svg aria-hidden="true" style="position:absolute;width:0;height:0" xmlns="http://www.w3.org/2000/svg" overflow="hidden"><defs><symbol id="menu" viewBox="0 0 32 32"><path fill="var(--color1, #2196f3)" d="M27.152 0H6.282a3.481 3.481 0 00-3.478 3.478v25.043a3.481 3.481 0 003.478 3.478h20.87a3.481 3.481 0 003.478-3.478V3.478A3.481 3.481 0 0027.152 0z"/><path fill="var(--color2, #000)" d="M4.891 5.565H2.108a.696.696 0 010-1.391h2.783a.696.696 0 010 1.391zm0 5.565H2.108a.697.697 0 010-1.392h2.783a.696.696 0 010 1.392zm0 5.566H2.108a.697.697 0 010-1.391h2.783a.695.695 0 010 1.391zm0 5.565H2.108a.696.696 0 010-1.391h2.783a.696.696 0 010 1.391zm0 5.565H2.108a.697.697 0 010-1.392h2.783a.696.696 0 010 1.392z"/><path fill="var(--color2, #000)" d="M27.152 32H6.282a3.483 3.483 0 01-3.478-3.478V3.479A3.483 3.483 0 016.282.001h20.87a3.483 3.483 0 013.478 3.478v25.043A3.483 3.483 0 0127.152 32zM6.283 1.391a2.09 2.09 0 00-2.087 2.087v25.043a2.09 2.09 0 002.087 2.087h20.87a2.09 2.09 0 002.087-2.087V3.478a2.09 2.09 0 00-2.087-2.087z"/><path fill="var(--color2, #000)" d="M10.457 16.696A.697.697 0 019.761 16v-2.618l-.074.147c-.237.472-1.009.472-1.245 0l-.072-.147V16a.697.697 0 01-1.391 0v-5.565a.697.697 0 011.317-.312l.769 1.539.769-1.537c.143-.291.469-.441.782-.367s.536.355.536.678v5.565a.697.697 0 01-.696.696zm5.565 0H13.24a.697.697 0 01-.696-.696v-5.565c0-.384.312-.696.696-.696h2.782a.697.697 0 010 1.392h-2.087v4.174h2.087a.696.696 0 010 1.391z"/><path fill="var(--color2, #000)" d="M15.326 13.913h-2.087a.696.696 0 010-1.391h2.087a.696.696 0 010 1.391zm6.261 2.783a.694.694 0 01-.62-.38l-.002-.004-1.465-2.93V16a.697.697 0 01-1.392 0v-5.565a.698.698 0 01.695-.696c.271 0 .506.155.621.38l.002.004 1.465 2.93v-2.618a.697.697 0 011.391 0V16a.697.697 0 01-.695.696zm4.174 0a2.09 2.09 0 01-2.087-2.087v-4.174a.696.696 0 011.391 0v4.174a.697.697 0 001.391 0v-4.174a.697.697 0 011.392 0v4.174a2.09 2.09 0 01-2.087 2.087z"/></symbol><symbol id="menu-2" viewBox="0 0 32 32"><path fill="var(--color3, #ffe169)" d="M27.007 5.517H15.972V32h11.035zm-7.725 7.724l-2.207-4.414zm3.862-1.103a1.104 1.104 0 11-2.208 0 1.104 1.104 0 012.208 0z"/><path fill="var(--color4, #ffda44)" d="M7.144 25.931h8.828V5.517H4.938V32h11.034v-6.069zm6.621-14.897V8.827v4.414zM8.8 8.828l1.655 2.759z"/><path fill="var(--color5, #ffaf46)" d="M15.972 2.272L4.938 5.517h11.034z"/><path fill="var(--color6, #ffbf6b)" d="M23.696 5.517V0l-7.724 2.272v3.245z"/><path fill="var(--color7, #808285)" d="M12.11 13.793a.552.552 0 01-.552-.552v-2.422l-.631 1.051a.574.574 0 01-.945.002l-.001-.002-.631-1.051v2.422a.552.552 0 11-1.104 0V8.827a.55.55 0 011.023-.287l.001.002 1.182 1.97 1.182-1.97a.552.552 0 011.025.285v4.414a.552.552 0 01-.552.552zm3.31 0h-1.655a.552.552 0 01-.552-.552V8.827c0-.305.247-.552.552-.552h1.655a.552.552 0 110 1.104h-1.103v3.31h1.103a.552.552 0 110 1.104z"/><path fill="var(--color7, #808285)" d="M15.42 11.586h-1.655a.552.552 0 010-1.104h1.655a.552.552 0 110 1.104zm3.862 2.207h-.003a.552.552 0 01-.492-.302l-.001-.003-1.159-2.323v2.077a.552.552 0 01-1.104 0V8.828v-.006c0-.302.243-.548.545-.552h.006c.217 0 .405.126.495.308l.001.003 1.159 2.323V8.827a.552.552 0 011.104 0v4.414a.552.552 0 01-.552.552zm2.759 0a1.655 1.655 0 01-1.655-1.655v-3.31a.552.552 0 011.104 0v3.311a.552.552 0 001.104 0V8.828a.552.552 0 011.104 0v3.311c0 .914-.741 1.655-1.655 1.655z"/><path fill="var(--color8, #939598)" d="M24.8 19.862H7.145a.552.552 0 110-1.104H24.8a.553.553 0 01.001 1.104zm0 3.31H7.145a.552.552 0 110-1.104H24.8a.553.553 0 01.001 1.104zm0 3.311H7.145a.55.55 0 110-1.102H24.8a.552.552 0 110 1.104z"/></symbol></defs></svg>