<svg aria-hidden="true" style="position:absolute;width:0;height:0" xmlns="http://www.w3.org/2000/svg" overflow="hidden"><defs><symbol id="cancel" viewBox="0 0 32 32"><path d="M18.329 16.022l13.152-13.08c.292-.287.473-.687.473-1.129s-.181-.841-.473-1.128a1.621 1.621 0 00-2.279 0l-13.14 13.069L2.8.491a1.608 1.608 0 00-2.279 0 1.62 1.62 0 000 2.286l13.252 13.254-13.3 13.227a1.586 1.586 0 000 2.257c.629.624 1.65.624 2.279 0L16.041 18.3 29.25 31.511c.629.631 1.65.631 2.279 0a1.62 1.62 0 000-2.286L18.33 16.024z"/></symbol><symbol id="menu" viewBox="0 0 32 32"><path d="M30.107 22.993H1.863a.878.878 0 100 1.756h28.244a.878.878 0 100-1.756zm0-8.255H1.863a.879.879 0 000 1.756h28.244a.878.878 0 100-1.756zm0-8.254H1.863a.878.878 0 100 1.756h28.244a.878.878 0 100-1.756z"/></symbol><symbol id="cross" viewBox="0 0 32 32"><path d="M31.708 25.708L22 16l9.708-9.708a1 1 0 000-1.414L27.122.292a1 1 0 00-1.414-.001L16 9.999 6.292.291a.998.998 0 00-1.414.001L.292 4.878a1 1 0 000 1.414L10 16 .292 25.708a.999.999 0 000 1.414l4.586 4.586a1 1 0 001.414 0L16 22l9.708 9.708a1 1 0 001.414 0l4.586-4.586a.999.999 0 000-1.414z"/></symbol></defs></svg>