<svg aria-hidden="true" style="position:absolute;width:0;height:0" xmlns="http://www.w3.org/2000/svg" overflow="hidden"><defs><symbol id="menu-nav" viewBox="0 0 32 32"><path fill="var(--color1, #ffe169)" d="M27.007 5.517H15.972V32h11.035zm-7.725 7.724l-2.207-4.414zm3.862-1.103a1.104 1.104 0 11-2.208 0 1.104 1.104 0 012.208 0z"/><path fill="var(--color2, #ffda44)" d="M7.144 25.931h8.828V5.517H4.938V32h11.034v-6.069zm6.621-14.897V8.827v4.414zM8.8 8.828l1.655 2.759z"/><path fill="var(--color3, #ffaf46)" d="M15.972 2.272L4.938 5.517h11.034z"/><path fill="var(--color4, #ffbf6b)" d="M23.696 5.517V0l-7.724 2.272v3.245z"/><path fill="var(--color5, #808285)" d="M12.11 13.793a.552.552 0 01-.552-.552v-2.422l-.631 1.051a.574.574 0 01-.945.002l-.001-.002-.631-1.051v2.422a.552.552 0 11-1.104 0V8.827a.55.55 0 011.023-.287l.001.002 1.182 1.97 1.182-1.97a.552.552 0 011.025.285v4.414a.552.552 0 01-.552.552zm3.31 0h-1.655a.552.552 0 01-.552-.552V8.827c0-.305.247-.552.552-.552h1.655a.552.552 0 110 1.104h-1.103v3.31h1.103a.552.552 0 110 1.104z"/><path fill="var(--color5, #808285)" d="M15.42 11.586h-1.655a.552.552 0 010-1.104h1.655a.552.552 0 110 1.104zm3.862 2.207h-.003a.552.552 0 01-.492-.302l-.001-.003-1.159-2.323v2.077a.552.552 0 01-1.104 0V8.828v-.006c0-.302.243-.548.545-.552h.006c.217 0 .405.126.495.308l.001.003 1.159 2.323V8.827a.552.552 0 011.104 0v4.414a.552.552 0 01-.552.552zm2.759 0a1.655 1.655 0 01-1.655-1.655v-3.31a.552.552 0 011.104 0v3.311a.552.552 0 001.104 0V8.828a.552.552 0 011.104 0v3.311c0 .914-.741 1.655-1.655 1.655z"/><path fill="var(--color6, #939598)" d="M24.8 19.862H7.145a.552.552 0 110-1.104H24.8a.553.553 0 01.001 1.104zm0 3.31H7.145a.552.552 0 110-1.104H24.8a.553.553 0 01.001 1.104zm0 3.311H7.145a.55.55 0 110-1.102H24.8a.552.552 0 110 1.104z"/></symbol><symbol id="cancel" viewBox="0 0 32 32"><path d="M18.329 16.022l13.152-13.08c.292-.287.473-.687.473-1.129s-.181-.841-.473-1.128a1.621 1.621 0 00-2.279 0l-13.14 13.069L2.8.491a1.608 1.608 0 00-2.279 0 1.62 1.62 0 000 2.286l13.252 13.254-13.3 13.227a1.586 1.586 0 000 2.257c.629.624 1.65.624 2.279 0L16.041 18.3 29.25 31.511c.629.631 1.65.631 2.279 0a1.62 1.62 0 000-2.286L18.33 16.024z"/></symbol><symbol id="tea" viewBox="0 0 32 32"><path d="M31.375 12.906H26.25v-1.323a.625.625 0 00-.625-.625h-13.5a.625.625 0 000 1.25H25V17c0 4.209-2.247 8.121-5.876 10.25H7.126A11.908 11.908 0 011.25 17v-4.792h4.188a.625.625 0 000-1.25H.625a.625.625 0 00-.625.625V17a13.111 13.111 0 004.928 10.25H.624a.625.625 0 00-.625.625A4.13 4.13 0 004.124 32h19.5a4.13 4.13 0 004.125-4.125.625.625 0 00-.625-.625H21.32a13.308 13.308 0 002.862-3.177l.032-.052h1.764A6.028 6.028 0 0031.999 18v-4.469a.625.625 0 00-.625-.625zM26.432 28.5a2.88 2.88 0 01-2.807 2.25h-19.5a2.88 2.88 0 01-2.807-2.25h25.113zM26.25 17v-.344h2V18a2.274 2.274 0 01-2.271 2.271h-.142c.262-.981.413-2.108.413-3.27V17zm4.5 1a4.776 4.776 0 01-4.771 4.771h-1.064c.166-.325.345-.737.504-1.16l.03-.09h.53A3.525 3.525 0 0029.5 18v-1.969a.625.625 0 00-.625-.625H26.25v-1.25h4.5V18zM13.722 3.459l-.325-.408a1.63 1.63 0 01-.002-2.037.625.625 0 10-.979-.777 2.874 2.874 0 00.003 3.593l.325.408c.624.783.625 1.878.002 2.662l-.333.42a.625.625 0 00.489 1.014h.001a.622.622 0 00.488-.235l.001-.001.333-.42a3.373 3.373 0 00-.004-4.218zm3.464 1.405l-.325-.408a1.63 1.63 0 01-.002-2.037.625.625 0 10-.979-.777 2.874 2.874 0 00.003 3.593l.325.408c.624.783.625 1.878.002 2.662l-.333.42a.625.625 0 00.489 1.013h.002a.622.622 0 00.488-.235l.001-.001.333-.42a3.374 3.374 0 00-.003-4.218zm-6.928 0l-.325-.408a1.63 1.63 0 01-.002-2.037.625.625 0 10-.979-.777 2.874 2.874 0 00.003 3.593l.325.408c.624.783.625 1.878.002 2.662l-.333.42a.625.625 0 00.489 1.014h.001a.622.622 0 00.488-.235l.001-.001.333-.42a3.373 3.373 0 00-.004-4.218z"/><path d="M9.393 11.141a.63.63 0 00-.884 0c-.116.117-.183.277-.183.442s.067.326.183.443a.628.628 0 00.884 0 .627.627 0 000-.884zm13.232 5.234A.625.625 0 0022 17c0 2.32-.941 4.6-2.582 6.255a.625.625 0 00.443 1.065h.002c.173 0 .33-.071.443-.185A10.212 10.212 0 0023.25 17a.625.625 0 00-.625-.625zm-4.257 8.577a.624.624 0 00-.851-.237l-.014.008a.624.624 0 10.617 1.087l-.003.002.014-.008a.624.624 0 00.237-.851z"/></symbol><symbol id="hookah" viewBox="0 0 32 32"><path d="M27.298 2.026a.526.526 0 00-1.05.046l.001.035v-.002c.112 1.485-.047 3.652-1.441 5.538-1.396 1.889-3.377 2.546-4.441 2.899-1.576.523-3.022.659-4.364.624.116-.244.184-.53.184-.832v-.001c0-.926-.637-1.707-1.495-1.927V7.72H17.5a1.93 1.93 0 001.928-1.928v-.561a.526.526 0 00-.526-.526h-2.559l1.052-3.394c.096-.31.041-.637-.152-.899a1 1 0 00-.813-.411h-2.79a.526.526 0 000 1.052h2.734l-1.132 3.652h-2.168L11.525.351a.526.526 0 10-.99.357l-.001-.004 1.424 4.002H9.472a.526.526 0 00-.526.526v.561a1.93 1.93 0 001.928 1.928h2.767v.704a1.993 1.993 0 00-1.385 2.336c-2.088-.295-3.905-.438-5.402.948-.408.377-1.37 1.419-1.499 2.936-.009.103-.191 2.53 1.774 3.847.783.524 1.594.67 2.254.67.249 0 .493-.02.731-.058l-.026.003c.153.439.459.806.855 1.036a6.321 6.321 0 00-2.329 8.844H7.135a2.465 2.465 0 00-2.462 2.462v.027c0 .29.235.526.526.526h17.98c.29 0 .526-.235.526-.526v-.027a2.465 2.465 0 00-2.462-2.462H9.899a5.233 5.233 0 01-1.168-3.308v-.002c0-2.908 2.366-5.273 5.273-5.273s5.273 2.366 5.273 5.273v.006c0 .577-.093 1.132-.264 1.652l.011-.037a.525.525 0 00.336.66l.004.001a.525.525 0 00.66-.336l.001-.004a6.188 6.188 0 00.304-1.937v-.006a6.33 6.33 0 00-3.091-5.434 1.932 1.932 0 001.159-1.768c0-.868-.576-1.603-1.366-1.845a2.881 2.881 0 00-1.387-2.037 1.98 1.98 0 00.215-2.382c1.469.048 3.088-.089 4.842-.671 1.091-.362 3.361-1.115 4.955-3.272 1.67-2.259 1.747-4.881 1.644-6.242zM9.647 30.037h11.595c.602 0 1.117.379 1.319.912H5.815a1.413 1.413 0 011.319-.912h2.513zm1.227-23.37a.878.878 0 01-.877-.877v-.035h8.379v.035a.878.878 0 01-.877.877h-6.626zm3.194 2.738a.561.561 0 00.223-.005.937.937 0 01.462 1.688 29.505 29.505 0 01-1.271-.153.938.938 0 01.587-1.529zm.099 2.916c.517 0 .938.421.938.938s-.421.938-.938.938c-.517 0-.938-.421-.938-.938s.421-.938.938-.938zm-4.139 5.726c-.504.092-1.449.149-2.315-.431-1.456-.976-1.313-2.865-1.311-2.884.098-1.151.848-1.959 1.165-2.253 1.252-1.158 2.847-.926 5.054-.605l.104.015a1.98 1.98 0 00-.02 2.719 2.883 2.883 0 00-1.36 2.021c-.656.2-1.165.742-1.318 1.418zm6.438-.45a.878.878 0 010 1.754h-4.558a.878.878 0 010-1.754h4.558zm-.533-1.052h-3.491c.226-.75.923-1.297 1.745-1.297s1.519.548 1.745 1.297z"/></symbol><symbol id="instagram" viewBox="0 0 32 32"><path d="M23.169 0H8.831C3.962 0 0 3.962 0 8.831v14.338C0 28.038 3.961 32 8.831 32h14.338C28.039 32 32 28.038 32 23.169V8.831C32 3.962 28.039 0 23.169 0zm5.992 23.169a5.999 5.999 0 01-5.992 5.992H8.831a5.998 5.998 0 01-5.991-5.992V8.831a5.999 5.999 0 015.991-5.992h14.338a5.999 5.999 0 015.992 5.992v14.338z"/><path d="M16 7.755c-4.547 0-8.246 3.699-8.246 8.246s3.699 8.245 8.246 8.245 8.246-3.699 8.246-8.245c0-4.547-3.699-8.246-8.246-8.246zm0 13.651c-2.981 0-5.406-2.425-5.406-5.406s2.425-5.406 5.406-5.406 5.406 2.425 5.406 5.406A5.412 5.412 0 0116 21.406zm8.591-16.059a2.08 2.08 0 00-2.082 2.081 2.1 2.1 0 00.611 1.473c.386.386.924.609 1.471.609.549 0 1.085-.223 1.473-.609.388-.388.609-.926.609-1.473 0-.549-.221-1.086-.609-1.473a2.091 2.091 0 00-1.473-.609z"/></symbol><symbol id="map" viewBox="0 0 32 32"><path fill="var(--color7, #46b29d)" d="M32 11.586V32l-11.035-2.207L10.482 32-.001 29.793V9.379l10.483 2.207.552-.116.651-.138 10.819-1.644z"/><path fill="var(--color8, #f9eab0)" d="M21.517 15.134v10.819c6.152.303 9.655-1.903 10.483-2.499v1.33c-1.423.866-4.519 2.312-9.308 2.312-.375 0-.772-.011-1.175-.033v2.841l-.552-.11-.552.116v-2.924c-4.899-.491-6.052-2.67-7.371-5.186a18.89 18.89 0 00-2.04-3.293l.032.043v8.353a16.932 16.932 0 013.073 4.23l.044.095-1.12.237a16.734 16.734 0 00-2.017-2.981l.02.024v3.377l-.552.116-.552-.116v-4.502c-3.327-2.974-7.779-4.485-9.931-5.087v-1.142c1.97.524 6.378 1.942 9.931 4.789v-8.601c-3.553-3.321-8.822-.96-9.931-.403V15.72c1.749-.783 6.339-2.395 9.931.199v-4.447l.552.116.552-.116v5.412a17.627 17.627 0 012.944 4.298l.046.105c1.247 2.395 2.174 4.143 6.389 4.59V10.396a.568.568 0 01.192-.419l.001-.001a.55.55 0 01.577-.086l-.004-.001h.006a.562.562 0 01.331.507v2.72a11.835 11.835 0 0010.483 6.19v1.103a13.09 13.09 0 01-10.459-5.241l-.024-.034z"/><path fill="var(--color9, #cc4b4c)" d="M23.441 6.326c0 2.853-4.482 10.261-6.125 12.678a.729.729 0 01-1.188.003l-.002-.002c-1.643-2.417-6.125-9.825-6.125-12.678 0-3.494 3.008-6.326 6.72-6.326s6.72 2.832 6.72 6.326z"/><path fill="var(--color10, #e6e7e8)" d="M19.481 6.396a2.759 2.759 0 11-5.517 0 2.759 2.759 0 015.517 0z"/></symbol><symbol id="menu" viewBox="0 0 32 32"><path d="M30.107 22.993H1.863a.878.878 0 100 1.756h28.244a.878.878 0 100-1.756zm0-8.255H1.863a.879.879 0 000 1.756h28.244a.878.878 0 100-1.756zm0-8.254H1.863a.878.878 0 100 1.756h28.244a.878.878 0 100-1.756z"/></symbol><symbol id="mobile" viewBox="0 0 32 32"><path fill="var(--color11, #f8ec7d)" d="M22.375 3.868v21.216c0 .453-.366.82-.819.82H10.497a.819.819 0 01-.82-.819V3.868a.82.82 0 01.82-.821h11.057a.82.82 0 01.82.821z"/><path fill="var(--color12, #e48e66)" d="M25.487 2.012v27.976c0 1.111-.927 2.012-2.07 2.012H8.633c-1.143 0-2.069-.901-2.069-2.012V2.012C6.564.901 7.49 0 8.633 0h14.784c1.143 0 2.07.901 2.07 2.012zm-3.112 23.072V3.868a.821.821 0 00-.82-.821H10.498a.82.82 0 00-.821.821v21.216c0 .453.366.82.819.82h11.059c.453 0 .82-.366.82-.819z"/><path fill="var(--color13, #e2d574)" d="M15.47 3.047h-4.973a.82.82 0 00-.82.821v21.216c0 .453.366.82.819.82h4.975z"/><path fill="var(--color14, #d18162)" d="M15.47 25.904h-4.973a.819.819 0 01-.82-.819V3.868a.82.82 0 01.82-.821h4.973V0H8.633C7.49 0 6.564.901 6.564 2.012v27.976c0 1.111.926 2.012 2.069 2.012h6.836z"/><path fill="var(--color11, #f8ec7d)" d="M16.025 30.887a1.933 1.933 0 01.043-3.868 1.935 1.935 0 01-.01 3.868h-.034.002zm0-2.227a.295.295 0 00.034.588h.007a.294.294 0 00.284-.294.311.311 0 00-.31-.293h-.015.001z"/></symbol><symbol id="cocktail" viewBox="0 0 32 32"><path d="M27.462 0a4.108 4.108 0 00-4.02 3.282h4.02a.82.82 0 01.821.82v2.462a6.521 6.521 0 01-.21 1.623l.01-.045A4.094 4.094 0 0027.461 0z"/><path d="M.385 6.564c.001.331.034.653.096.965l-.005-.032H26.55c.057-.28.09-.603.091-.933V4.923H.385zm4.923 4.923h.164a.82.82 0 01.804.657A7.409 7.409 0 0012.692 18v12.359H5.307V32h16.41v-1.641h-7.385V18a7.41 7.41 0 006.416-5.856.823.823 0 01.804-.657h.164a4.915 4.915 0 004.173-2.327l.012-.021H1.122a4.92 4.92 0 004.184 2.348z"/></symbol><symbol id="time" viewBox="0 0 32 32"><path fill="var(--color15, #fff)" d="M31.375 8.5v21.625a1.25 1.25 0 01-1.25 1.25H1.875a1.25 1.25 0 01-1.25-1.25V8.5z"/><path fill="var(--color16, #ff5d5d)" d="M30.125 3.125c.691 0 1.25.559 1.25 1.25V8.5H.625V4.375c0-.691.559-1.25 1.25-1.25z"/><path fill="var(--color17, #ffaa24)" d="M16 21c0 1.25-3.75 1.25-3.75 6.25h7.5c0-5-3.75-5-3.75-6.25zm3.75-6.25h-7.5c0 5 3.75 5 3.75 6.25 0-1.25 3.75-1.25 3.75-6.25z"/><path fill="var(--color18, #000)" d="M7.25 10.375a.625.625 0 100 1.25.625.625 0 000-1.25z"/><path fill="var(--color18, #000)" d="M1.875 32h28.25A1.877 1.877 0 0032 30.125V4.375A1.877 1.877 0 0030.125 2.5h-1v-.625C29.125.841 28.284 0 27.25 0s-1.875.841-1.875 1.875V2.5h-3.75v-.625C21.625.841 20.784 0 19.75 0s-1.875.841-1.875 1.875V2.5h-3.75v-.625C14.125.841 13.284 0 12.25 0s-1.875.841-1.875 1.875V2.5h-3.75v-.625C6.625.841 5.784 0 4.75 0S2.875.841 2.875 1.875V2.5h-1A1.877 1.877 0 000 4.375v25.75C0 31.159.841 32 1.875 32zm28.25-1.25H1.875a.625.625 0 01-.625-.625v-21h29.5v21c0 .345-.28.625-.625.625zm-3.5-28.875a.625.625 0 011.25 0V2.5h-1.25zm-7.5 0a.625.625 0 011.25 0V2.5h-1.25zm-7.5 0a.625.625 0 011.25 0V2.5h-1.25zm-7.5 0a.625.625 0 011.25 0V2.5h-1.25zM1.875 3.75h1v.813c0 1.034.841 1.875 1.875 1.875a.625.625 0 000-1.25.625.625 0 01-.625-.625V3.75h6.25v.813c0 1.034.841 1.875 1.875 1.875a.625.625 0 000-1.25.625.625 0 01-.625-.625V3.75h6.25v.813c0 1.034.841 1.875 1.875 1.875a.625.625 0 000-1.25.625.625 0 01-.625-.625V3.75h6.25v.813c0 1.034.841 1.875 1.875 1.875a.625.625 0 000-1.25.625.625 0 01-.625-.625V3.75h3.5c.345 0 .625.28.625.625v3.5H1.25v-3.5c0-.345.28-.625.625-.625z"/><path fill="var(--color18, #000)" d="M24.75 10.375h-15a.625.625 0 000 1.25h15a.625.625 0 000-1.25zm-4.395 5H21a.625.625 0 000-1.25H11a.625.625 0 000 1.25h.645c.275 4.296 3.462 5.04 3.728 5.625-.267.585-3.454 1.329-3.728 5.625H11a.625.625 0 000 1.25h10a.625.625 0 000-1.25h-.645c-.275-4.296-3.462-5.04-3.728-5.625.267-.585 3.454-1.329 3.728-5.625zm-1.253 11.25h-6.203c.229-3.08 2.139-3.692 3.102-4.488.957.791 2.873 1.406 3.102 4.488zM16 19.863c-.957-.791-2.873-1.406-3.102-4.488h6.203c-.229 3.08-2.139 3.693-3.102 4.488z"/></symbol></defs></svg>